<svg height="1200" viewBox="0 0 467.14 467.14" width="1200" xmlns="http://www.w3.org/2000/svg"><path d="m0 0h467.14v467.14h-467.14z" fill="#fff"/><g transform="matrix(.6 0 0 .6 93.428 191.051)"><path d="m5.21 57.22v27.71l30.73-2.04 8.96-2.28 4.11 5.03 88.33-1.45 7.88-1.3 4.29-2.16 4.12-15.54-9.82-9.33z" fill="#fff"/><path d="m99.25 64.28c-1.06-.5-2.25-.38-3.81-.38h-4.93v4.87h4.93c1.87 0 2.69.13 3.81-.31 1.25-.5 1.12-1.62 1.12-2.12s.19-1.44-1.12-2.06z" fill="#013154"/><path d="m156.68 65.16c.13-1.44.38-3.75.31-4.31-.19-1.44-1.31-2.94-2.5-4.31-1.44-1.56-2.74-2.12-4.31-3.43h-150.18v36.39h9.05l35.08-6.99-1.75 7.05h60.37c.56-.31.81-.38 1.31-.63.63-.31 1.31-.63 1.93-.81.94-.25 1.87-.38 2.87-.38.56-.06 1.12.19 1.5.56.25.38.43.81.56 1.25h3.43l.31-.56c.38-.63.56-1.12 1.19-1.12 3.18 0 6.12-.06 9.49 0 .31-.06.56.06.75.31.38.56.5.87.81 1.37l11.05-.06c.5-1.12.75-1.75 1.44-3.06v-.06s.08-.02.13-.06c2.62-1.12 5.81-2.43 8.67-3.75.13-.06.25-.13.38-.06.56.19 1.19.38 1.44.5.19.06.19.19.25-.13.75-2.62 1.69-5.25 2.69-7.8l3.87-6.99c-.25-.87-.07-1.93-.13-2.93h-.01zm-115.17 11.48c0 1.37-.38 3.93-2.5 4.93s-5.3.75-8.3.75h-21.6v-22.35h21.6c2.94 0 6.18-.19 8.3.81s2.5 3.56 2.5 4.93v10.92zm32.52 5.68h-26.16v-22.35h11.36v16.35h14.79v5.99h.01zm31.96-11.3c1.31-.06 2.62.19 3.81.75.94.5 1.56 1.44 1.62 2.5v8.05h-11.36v-7.05c0-.69.06-1.81-.94-2.06-1.12-.31-1.81-.25-3.56-.25h-5.06v9.43h-11.36v-22.41h21.47c2.5 0 5.3-.19 7.3.69 2.31 1 3.5 2.18 3.5 4.62v.63c0 1.93-.81 2.87-2.5 3.93-1.62 1-3.68 1.19-7.55 1.19h4.62v-.02zm43.51-5.05h-10.86c-.38-1.62-1.31-2.06-3.5-2.06h-3.5c-2.37 0-3.25.75-3.25 2.12v9.86c0 1.19.19 1.69 1.12 2.18.75.38 2.06.31 3.56.31h2.74c2.62 0 2.81-1.37 2.81-2.87v-2.62h-5.43v-4.06h16.23v8.55c-.06 2.12-1.5 3.93-3.5 4.49-2.37.63-4.68.5-7.3.5h-10.8c-3.56.06-6.68.31-8.49-.94-1.37-.87-2.25-2.37-2.31-4v-12.42c0-1.75 1-2.99 2.31-4 1.62-1.25 4.93-.94 8.49-.94h10.8c4.24 0 7.12 0 8.67 1.06 2.45 1.57 2.2 4.82 2.2 4.82v.02z" fill="#013154"/><path d="m29.15 66.34c-1.44-.56-2.43-.38-3.87-.43h-4.87v10.42h4.87c1.44 0 2.43.19 3.87-.43 1.12-.43 1-2.12 1-2.81v-4.06c0-.56.13-2.25-1-2.69z" fill="#013154"/><path d="m12.68 125.4-9.21-1.65 1.24 10.69 7.39 5.24 10.95.48 5.39-4.72 13.07-50.51-33.06 6.3-.58 9.07 20.57-2.35-4.23 20.32-3.8 11.69-5.65 1.77z" fill="#d7005f"/><path d="m41.08 100.15h7.1l-3.28 12.1 3.57 1.29 2.57-2.15 4.73-11.99 6.34-.25-1.2 9.67 3.19 1.44 5.06-3.26 1.41.68v2.25l-4.44 6.14-7.5.75-2.81-3.86-5.98 6.05-7.38.42-4.98-5.18z" fill="#d7005f"/><path d="m86.87 93.23-1.04 2.95-8.99-2.95-2.16 1.2-3.86 14.22 4.73 5.19 7.46-2.28-3.65 14.31-3.94-2.99-8.91 2.32 10.61 8.3 7.92-3.2 7.84-34.12zm-3.22 13.29-6.88-1.25 4.07-4.97 3.75 2.29z" fill="#d7005f"/><path d="m110.8 103.5-4.23 4.18-3.54-2.39 7.1-4.99-.66-10.74-4.55.52-5.03 4.59-7.46 10.04 7.01 7.67 9.12-.79 4.81-5.06zm-6.03-8.82.68 3.59-5.2 2.23z" fill="#d7005f"/><path d="m165.66 95.94-8.21 4.06 1.06-12.17 1-4.15 3.68-8.02 2-3.99-5.71-5.05-1.86 2.73-5.04 11.38-1.99 4.05-1.82-.65-8.01 3.34-1.74 2.61-3.17 9.1h-4.36l-2.92-7.87-3.42.81v-2.56h-8.84l-1.33 19.38 3.51-1.47 5.2-10.39 2.84 11.54 4.67-.28 6.64-5.17 1.39 4.79 11.96-7.66 2.94 6.81 14-8.75zm-22.67-.18 4.26-6.52.21 5.19z" fill="#d7005f"/><path d="m168.91 97.43c-1.06-.69-2-2.06-3.31-2.37-2.37 1.25-4.43 2.69-6.87 3.56l-.25-.19c.06-3.06.25-6.12.63-9.18 0 0 .81-5.93 1.37-6.18.38-1.31.87-2.56 1.5-3.75.69-1.31 1.37-2.69 1.87-4.12l1.62-3.25c.19-.63 0-1.25-.43-1.69l-5.5-4.49c-.43.31-.81.69-1.06 1.19-.19.06-3.43 6.18-5.06 8.99-.94 2.56-1.75 5.06-2.56 7.61-.56.87-1.44-.25-2.25-.19l-8.55 3.62c-.43.94-.87 1.81-1.25 2.81-1.06 2.87-2.18 5.81-3.5 8.67-1-.13-2.12.69-2.94.06-.63-1.69-1.19-3.37-1.87-4.99-.31-1.06-.69-2.06-1.12-3.06-1.19-.06-2.25.81-3.37 1-.25-.56.25-1 .19-1.56-.19-.56-.25-1.5-1.12-1.37l-8.99.19c-.43.38-.69.87-.81 1.44-.5 3.68-.75 7.37-.69 11.11-.25 1.37-.13 3.12-.31 4.56-.87-.25-1-1-1.69-1.56-.75-.56-1.19-1.69-2.18-1.62-1.31 1.37-2.5 2.74-3.81 4.06l-.56.19c-.56-.43-1.37-.69-1.62-1.31 1.31-1.12 2.81-2.12 4.31-2.94.94-.75 2.69-.75 2.74-2.25-.06-2.94-.38-5.87-1-8.8-.43-1.06-.06-2.94-1.5-3.12-1.12 0-2.25.25-3.31.69-.87.38-2.18.87-2.69 1.37-2.69 2.94-5.55 5.93-7.99 9.05-.94 1.12-1.37 2.81-2.62 3.43.19-1.5.69-2.94.87-4.49.38-1 .94-2.5.13-3.37-1.93-.81-3.87-1.81-5.87-2.62-1.93-1-1.25 1.75-2.18 2.56l-1.06.06c-2.31-1-4.56-1.75-6.93-2.56-1.06.06-2.12.38-3.06.94-1.69 4.06-2.12 8.74-3.68 12.86-.38-.19-.81-.63-1.31-.38l-4.49 2.94c-.94.69-2-.06-2.81-.5.31-3.25.75-6.43 1.12-9.55-.63-1.12-2.12-.13-3.12-.5-1.87.69-5.37-1.25-5.68 1.81-.19 2.18-1.5 3.81-2.18 5.74-1.19 2.06-1.37 4.56-3.25 6.12-.81.5-1.87.19-2.69.13l-.13-.38c.5-3.37 1.69-6.31 2.56-9.49 0-1.06 1.25-2.43.06-3.37-2.25-.25-4.74.25-7.12.31-.43-.13-.94-.06-1.37.19-1.12 4.49-2.18 9.05-3.25 13.54-.13 1-.38 2.37.63 2.87 2.12 1.62 3.06 3.81 5.43 4.74 2.56-.06 5.12-.25 7.61-.69 1.56-1.56 3.12-3.43 4.93-4.99l.5-.19c.56 1.12.81 2.37 1.69 3.31 1.06.38 2.37-.13 3.62-.13 1.81-.25 3.81-.25 5.68-.69 1.06-2.37 2.43-4.56 4.12-6.55 1.31 1.25 2.43 2.74 3.62 4.12l.63.25c2.5.19 3.75-1.81 6.18-1.69-.31 1.93-.75 3.93-1.31 5.81-.56 1.81-.63 3.87-1.44 5.5-1.25-.87-2.06-1.93-3.37-2.69-3.25.63-6.37 1.75-9.61 2.56-.31.25-.75.63-.56 1.12 1.93 1.93 4.37 3.5 6.68 5.25 1.93 1.25 3.37 3.12 5.68 3.87 2.25-.25 4.12-1.75 6.06-2.62.81-.56 2.31-.56 2.43-1.87 1.75-8.18 3.68-16.17 5.5-24.34l.19-.06c1.93 2.43 4.24 4.81 6.37 7.12l1.06.63c2.62-.06 5.18-.31 7.74-.75 3.37.31 4.93-2.94 6.93-4.68.31.25.13.69.25 1.06.19.5.63.81 1.12.87 1.44-.87 3.12-1.37 4.49-2.5 1.25-2.81 1.93-5.81 3.87-8.24.81 2.56 1.31 5.25 1.5 7.93.31.75 0 2.43 1.37 2.43 2.31-.25 4.37-.25 6.55-.81 1.62-1 2.69-2.37 4.37-3.25.69.75-.06 2.37 1 2.94l2.74-.06c2.94-2.37 5.99-4.74 9.11-6.99l.43-.06c.69 2 1.37 3.87 1.93 5.87.31.63.63 1.56 1.5 1.37 2.94-2.06 6.06-3.75 8.87-5.87 1.81-1.5 4.37-2.56 6.12-4.24.13-.57.13-1.13-.24-1.26zm-99.25 11.54c-1.37 1.81-2.56 4.06-4.31 5.74-2.18.87-4.43.38-6.74.63-.81-1.37-1.12-2.74-2.12-4-.31-.19-.75-.19-1.06 0-1.87 1.75-3.31 4.37-5.37 5.81-2.37.56-4.81.94-7.24 1.12-1.56-1.62-3.12-2.56-4.31-4.31.63-4.56 2.12-8.55 2.87-13.11 1.81 0 3.43-.31 5.3-.06-.25 2.37-1.37 4.93-1.87 7.37-.19 1.75-2.06 4.24.13 5.5 1.87.56 4.62 1.37 6.12-.56 2.18-4.12 3.31-8.87 5.5-13.05.87-.63 1.87 0 2.94-.31.56.13 1.25-.13 1.81.19-.5 2.94-1 5.74-1.44 8.67.13 1.75 2.06 1.44 3.12 2.18 2.69.81 4.12-2.25 6.43-2.94.25.06.38.38.56.56zm20.16-2.99c-1.56 6.37-3.12 13.05-4.68 19.47-1 1.44-.13 4.18-2.31 4.68-1.81.63-3.5 1.56-5.37 2.06-1-.25-1.62-1.37-2.56-1.81-2-1.69-4.18-3.06-6.12-4.93 1.93-.63 3.81-1.25 5.87-1.75 1.31 0 1.75 1.44 2.69 1.87s1.12 1.31 2.18 1.31l.63-.75c.75-3.25 1.81-6.37 2.31-9.68.38-2.06 1.37-3.93 1.31-6.06-.19-.43-.75-.63-1.19-.43-2.37.69-4.49 1.75-6.8 2.5-1.44-1.25-2.69-2.69-3.75-4.24.56-4.37 1.93-8.37 2.94-12.55.19-.81.81-1.37 1.62-1.5 1.56.19 2.94 1 4.43 1.37 1.44.75 2.99.94 4.56 1.62 1.62-.06 1.19-2.12 1.81-3.12 1.56.75 3.18 1.37 4.56 2.5-.63 3.14-1.44 6.19-2.12 9.44zm20.17 2.56c-.81.63-1.25 1.75-2.37 1.93-2.94.31-5.37.75-8.37.63-2.43-1.75-3.87-4-5.55-6.06l.13-.69c3.18-4.31 6.31-9.18 10.42-12.86 1.37-.81 2.69-1.62 4.37-1.37l.25 1 .38 7.74-.19.56c-2.5 1.56-4.87 3.18-7.18 4.99-.31.38-.43.87-.19 1.31 1.5 1 2.74 2.37 4.49 3.06 1.19-.19 1.5-1.37 2.37-2.06.81-.63 1.25-1.62 2.18-2.25.56.38 1.12.87 1.5 1.44-.44 1.13-1.56 1.7-2.25 2.63zm44.19-3.31c-.5-.06-.63-.69-.69-1.12-.63-1.81-1.12-3.62-1.5-5.43-.19-.31-.43-.56-.81-.63-1.06.13-1.56 1.37-2.43 1.87-2.43 2.12-5.06 3.93-7.74 5.87-.56.06-1.5.43-1.87-.13l-.13-3.37c-.25-.56-.94-.81-1.5-.56-2.37 1.75-4.43 3.43-6.74 5.3-1.19.5-2.5.56-3.75.19-.69-3.5-1.25-7.05-2.18-10.49-.38-.63-.69-1.37-1.44-1.69-1.5.43-1.19 2.25-1.93 3.37-.94 2.62-2.06 5.25-3.31 7.74-.94.19-1.25 1.19-2.25 1.31-.19-1.31.13-2.69.19-4.06-.31-1.56.38-3.25.19-4.74.06-2.43.63-4.56.56-7.05h.06c-.13-.38.19-1.25.31-1.81 2.31.19 4.62.06 6.93.31-.13.69-.56 1.37-.31 2.18 1 1 2.56.06 3.75-.13l.38.38c1 2.43 1.93 4.99 2.99 7.49.5.56 1.31.75 2.06.5l3.5-.63c.69-1.06.87-2.43 1.19-3.68.63-2.56 1.25-5.06 2.5-7.37.94-.87 2.12-1 3.06-1.75 1.62-.94 3.37-1.69 5.25-2.18 1-.19 1.56.87 2.5.5.81-.56.81-1.87 1.37-2.69 1.75-5.3 4.43-10.42 7.3-15.29l.38.06 4.49 4.31c.13.56-.38 1-.56 1.44-1.75 3.75-4.12 7.55-5.3 11.61-1.37 3.18-1.81 6.74-2.43 10.24-.43.75.06 1.5-.19 2.37.13 1.31-.38 3.25 1.12 3.68 2.99-1.12 5.3-2.94 8.24-4.31.31.31 1 .43 1.25 1l.13.31c-4.07 2.89-8.44 4.76-12.62 7.07h-.02z"/><path d="m12.86 89.68-5.3 1.19c-.38 2.94-.19 5.81-.56 8.8 0 .63-.19 1.93.69 2.18 3.06-.13 6.06-.87 8.93-1 2.81-.56 5.87-.75 8.8-1.12.5-.06 1.19-.31 1.69 0-.13 1.19-.31 2.37-.63 3.5-.5 1.12-.19 2.5-.63 3.68-.31 2.06-1.19 3.87-1.44 5.93-1.12 5.3-2.74 10.42-4.24 15.48-.13 1.31-1.44 1.5-2.37 2-.87.19-1.93.87-2.87.19-.43-1-.81-2.06-1-3.18-.25-.87.19-2-.56-2.69-3.31-1-6.74-1.12-10.17-1.81l-.56.25c-.43 1.12.06 2.18.19 3.37.5 3.12.43 5.93 1.44 8.87 2.56 2.18 4.99 4.43 8.05 5.81 3.37.25 6.93.63 10.49.63 2.37-1.19 4.31-2.87 6.49-4.56 2.43-8.99 4.74-18.04 6.99-27.09l6.62-26.34-30.03 5.93zm22.03 17.79c-.94 2.81-1.44 5.81-2.31 8.67-.56 2.25-1 4.43-1.75 6.62l-2.99 11.3c-.87 2-3.18 2.81-4.56 4.37-1.37.69-3.43.31-4.93.31-2.37-.13-4.68-.5-6.93-1.19-1.69-.94-3.43-2.43-5.12-3.5-1.5-2.12-1.25-4.87-1.56-7.55.13-.63-.13-1.25 0-1.81 1.93-.19 3.56.5 5.5.5l1.93.5c.43 2.18.38 4.56 1.75 6.24 2.18 1.62 4.93-.25 6.87-1.12 1.87-2.56 2.31-5.81 3.25-8.87 1.37-3.75 1.69-8.05 2.69-11.92.56-2.99 1.25-6.06 2.12-8.93 0-1.56.94-2.62.56-4.24l-.43-.38c-5.99 1.06-12.05 1.62-17.98 2.74l-2.18.19c-.06-2.5.06-5.18.19-7.68 1.25-.43 2.5-.75 3.81-.87 5.55-1.19 11.23-1.87 16.73-3.31 3.62-.63 7.37-1.31 10.92-1.93-.81 4.37-2.25 8.67-3.25 12.92-.69 3.07-1.82 5.95-2.32 8.94z"/><path d="m148.69 89.19c-.5-.5-1.25-.75-1.93-.63-.43.06-.87.38-1.12.75l-3.81 6.55c-.13.38-.13.75.13 1.06 1.93 0 3.43-1.12 5.25-1.37.56-.19.94-.75 1-1.37-.19-1.81.87-3.31.5-4.99zm-2.06 4.56c-.69.38-1.44.56-2.18.69.25-.63 2-2.56 2.43-3.12.19.62-.25 1.87-.25 2.43z"/><path d="m105.87 94.75c-.19-.5-.25-1.12-.81-1.19-1.87 1.06-2.94 3.12-4.49 4.81-.56 1.06-2.31 1.62-1.81 2.99.19.31.43.69.87.63 1.75-.69 3.37-1.75 5.18-2.31 1.93-.93.68-3.12 1.06-4.93zm-3.81 4.43c.31-.31.87-2.69 2.81-2.43.44 1.05-2.06 2.43-2.81 2.43z"/><path d="m85.52 101.54c-1.56-1.37-3.25-2.5-5.3-2.74-2.06 1-3.12 3.25-4.12 5.25-.25.75-.56 1.81.19 2.37 1.81.19 3.5.56 5.3.81.87-.19 1.37.81 2.31.31.94-1 .81-2.56 1.31-3.75.19-.75.57-1.5.31-2.25zm-2.37 4.25c-1.75-.19-3.56-.56-5.3-.63.81-1.37 2.31-2.25 3.56-3.18 1 .25 2.31.63 2.43 1.81-.25.69-.12 1.63-.68 2z"/><g fill="#fff"><path d="m182.83 10.72c-1.93.43-1.81 2.94-2.5 4.99-1.25 3.5-2.62 6.87-4.24 10.17-2.37 4.62-7.99 7.49-11.74 7.18-1-.06-1.93-.06-2.87 0-.56.19-1 .69-1.06 1.25-.06.63-.06 1.31.06 1.93.38 4 1.62 9.11 4.24 11.74-.13-.43.13-1.06.56-1.06.38 0 1.37 4 3.93 3.18.94-.31-.19-1.81.5-2 .63-.19 1.19 2.18 3.56 2.43h.06c.38 0 .63-.25.63-.63 0-.25-.94-2.06-.63-2.37.5-.5 1.87 2.31 3.62 1.87.56-.19 1-.69 1.06-1.31 0-.25-1.06-1.06-.69-1.44.5-.5 1.75 1.19 2.94 1 .38 0 .69-.13 1-.31.43-.31.63-.87.43-1.37-.38-.87-1.69-1.19-1.31-1.81.43-.69 2.62 2 3.87.81 1.19-1.12-.81-2.43-.5-2.94.19-.38 1.5 1.37 2.99.5 1.06-.63-1.19-2.06-.63-2.62.56-.5 1.93 1.87 3.62.75 1.19-.81-.75-2.37-.38-2.81.5-.63 1.62 2.31 3.56 1.19 1.56-.94-.43-2.18 0-2.56.56-.5 2.25 2.5 3.68 2 2.69-.87-.69-2.56.06-2.81.81-.31 2.31 2.25 3.68 1.75 2.12-.75-1.12-2.74-.06-3.06.56-.19 2 2.74 3.62 1.81 1.37-.81-.87-2.69-.38-2.99.43-.31 1.5 2.74 3.56 2.06.19-.06 1.12-.5.87-1.19-.38-.94-9.36-12.55-11.86-17.73-2.54-.93-12.34-5.8-13.27-5.62z"/><path d="m207.12 36.75c-.43 0-.87-.06-1.31-.19-.25.5-.63.87-1.12 1.12-.69.25-1.44.19-2.06-.19-.31.69-.81 1.12-1.5 1.37-.75.25-1.56.25-2.31-.06-.31.63-.87 1.06-1.5 1.25-.87.25-1.81.06-2.56-.5-.19.43-.56.81-1 1.06-.69.25-1.44.31-2.12.13 0 0-.43 2.12-3.25 1.5-.13 1.93-2.43 1.81-2.43 1.81.13.75-.13 1.5-.63 2.06-.69.56-1.62.75-2.5.5.06 1-.56 1.87-1.56 2.18-.69.19-1.37.19-2-.06-.25.43-.75 1.5-1.56 1.81s-2.12-.19-2.12-.19c-.25 0-.06.56-.38.94-.06.13-.38.43-.38.43.81.69 5.43 5.06 9.05 5.87.75.19 1.44.38 1.93-.56-.38-.5-.69-1-1-1.56 0-.25.25-.19.63.06 1.62 1.06 4.06 4.81 5.5 4.62.43 0 .87-.19 1.19-.5-.69-.87-1.37-1.81-1.31-2.06s.31-.13.56.06c1.37.94 3.25 4.93 4.99 4.81.38-.06.69-.25.87-.63-.87-.94-1.69-1.93-1.69-2.18 0-.06-.06-.25.63.06 1 .43 4.18 4.74 5.43 4.56.31-.06.56-.19.75-.43-.63-.69-1.19-1.5-1.69-2.31 0-.38.13-.43.63 0 1.93 1.75 4.87 5.43 6.06 5.25.38-.06.75-.31.94-.69-1.06-1.44-1.75-2.31-1.75-2.5 0-.25.13-.63.75 0 1 1 2.62 3.37 4.18 4.37.43.31.94.43 1.5.43.43-.06.87-.19 1.31-.43.38-.25.69-.56.56-.75-1.12-1.19-2.25-2.56-2.18-2.94 0-.19.31-.06.5.06 1.5 1 2.94 2.81 4.24 3.56.31.25.75.38 1.12.38.43-.06.87-.19 1.25-.38.25-.13.43-.38.5-.63-1.69-1.5-4.06-4.49-2.81-4.43.19 0 1.81 2.31 2.06 2.37 1.93 2 2.81 2 3.81 1.93.19 0 .38-.13.56-.25.38-.38.38-.94.38-1.06-4.12-4.81-6.06-7.86-9.24-13.23-4.06-6.74-4.81-9.68-7.18-16.17-.26.16-.51.22-.76.29z"/><path d="m170.97 82.57c0-.06 0-.56.06-1.12.06-1.31.19-3.25.25-3.43.56-2.56-.75-2.31-2.18-2.74.06 1.44.19 2.06.19 5.87v.31c-.31 5.3-7.93 2.37-9.55 7.86.5-.31 1-.5 1.5-.69 2-.38 3.87-.87 5.81-1.44.31-.25.69-.38 1.06-.5.25 0 .19.13.25.19-.31.43-.56.81-.69 1.31-.06.43-.06.81 0 1.25.19 1.37.69 2.62 1.56 3.68.75-.94 1.31-2.06 1.56-3.25.13-.81.19-1.62.13-2.43v-.06c0-.31.25-.63.63-.63.75.31 1.56.63 2.37.87.69.19 3.12-.19 4.06.81.5.5.63 1.56.75 1.62.69-.63 1.06-1.5 1-2.37.13-2.25-7.24-1.87-8.43-3.12-.5-.49-.31-1.74-.31-1.99z"/><path d="m170.66 51.17c-.63-.13-.94.56-.94.56-.06.38 6.68 4.93 9.74 7.55 1.37 1.25 8.05 6.49 9.43 8.55.13.13.19.38.25.56 0 .31 0 .56-.63.56-.56-.31-1.06-.69-1.5-1.12-1.5-1.31-3.5-3.18-3.93-2.87-.31.25 1.31 1.87 1.93 2.87.13.13.19.38.25.56-.06.31-.25.5-.56.56-.43 0-1-.5-1.62-1.12-1.19-1.25-2.43-3.12-2.81-2.87-.31.25.75 1.69 1.56 2.87.31.38.56.87.75 1.37 0 .25-.06.56-.5.56-.38 0-1.06-.94-1.81-1.93-.94-1.31-1.93-2.74-2.18-2.37-.19.31.56 1.37 1.19 2.37.38.5.69 1.06.87 1.62 0 .13.13.63-.43.63-.43 0-1.31-1.19-2.06-2.25-.69-1-1.31-1.87-1.56-1.69-.19.13 0 .75.31 1.69 1.37 3.56 5.81 11.48 7.8 11.92 1.31.31.81-.63.81-.63-.31-.75-2.74-4.56-2.74-4.81s.06-.19.06-.25c.63.56 2.37 3.31 3.87 5.12.81.94 1.81 1.69 2.37 1.62.81-.13.13-1.06.13-1.06s-2.31-3.75-2.99-4.87c-.06-.06.13-.19.06-.25.94 1 4.18 5.68 6.31 6.99.31.25.63.38 1 .38.25 0 .56.06.81-.19.06-.06.13-.13.13-.19.06-.13.06-.31 0-.5-.69-1.81-2.87-4.12-4.06-5.43-.06-.06 0-.19.06-.25 1.06.87 4.24 4.37 6.62 6.18.63.56 1.31.94 2.12 1.12.25 0 .5 0 .69-.13.06 0 .13-.06.19-.06.31-.19.43-.63.25-.94-.43-1-2.25-2.37-3.43-3.56-.19-.13-1.75-1.56-1.37-1.62.81.56 1.56 1.19 2.25 1.87 1.31 1.25 2.74 2.37 4.24 3.37 1.12.75 2.43 1.12 3.81 1.19h.06c.56 0 .94-.43.94-1 0-.06-.06-.13-.06-.19-.5-1.31-5.68-5.68-7.12-6.87-2.62-2.31-5.37-4.62-8.05-6.99-5.93-5.25-11.92-10.61-17.73-15.79-.58.06-2.14-.76-2.76-.88z"/><path d="m159.8 24.83c0 .75.25 1.44.69 2 .94 1.37 6.8-1.87 7.43-3.31 0-1.81-4.93-3.68-4.93-3.68 3.37.63 4.06 1.25 5.5 1.87 1.25.5 2.37-1.06 2.37-2.62 0-3.62-9.68-6.49-9.99-6.62.69 0 1.37.06 2.06.13 3.62.63 6.18 2.06 7.3 2.06.31 0 .81-.56.81-1.25 0-1-.94-2.31-1.81-2.99-5.3-4-11.55-4.99-16.67-6.18 2.5-.25 8.43.43 8.49.43.31.06.69.13 1 .25-.25-.38-.31-.81-.19-1.25.13-.31.31-.63.56-.81-2.12-.94-5.87-1.37-9.68-1.31-4.06 0-7.37 1.19-7.37 3.25 0 3.12 15.17 2.5 15.29 15.79.06 1.31-.87 3.12-.87 4.24z"/><path d="m165.29 84.14c.43 0 2.37-.56 2.37-1.44h-.06v-6.12c0-.43-.13-.87-.31-1.25-.38.25-.75.43-1.19.56-.56 1.87-1.06 3.81-1.37 5.74-.13.56-.19 1.19-.19 1.75 0 .25 0 .5.13.75h.62z"/><path d="m132.52 16.65c-.19-.31-.5-.5-.87-.56-.56 0-.43.38-.69.81l.25.25c.44-.25.87-.38 1.31-.5z"/><path d="m124.16 19.34c1.31 0 4.81 1.06 5.62 1.31 3.06 1.06 6.8 2.5 9.49 5.87 2.74 3.43 3.68 7.24 5.06 10.61.75 1.75 1.44 3.5 2 5.3 1.06 3.06 3.06 5.74 5.68 7.61 2.5 1.62 6.37 2.94 8.05 6.24 1.75 3.56 2.37 7.68 4.24 11.48.87 1.81 2.06 3.5 3.5 4.87.69.81 1.62 1.31 2.69 1.5 2.62.31 3.81-4.49 4.18-6.31v-.38c0-.56 0-1.12-.13-1.69-.38-2.81-3.68-6.93-3.68-7.37 0-.38.69-.5 1-.5.63.13 1.19.43 1.56.94-.06-.63-1.06-2-1.93-2.69-5.99-4.68-9.61-8.62-11.8-16.04-.43-1.25-.69-2.56-.87-3.87-.06-.56-.13-1.12-.13-1.69 0-.81-.06-3.18 1.81-3.18.25 0 .69.63 1.25.56.5-.06.25-.56 1.06-.69.25-.06.75.5 1.25.43s.31-.69 1.06-.81c.63-.13.87.75 1.62.5.56-.19.19-1.12.69-1.37.69-.38 1.19.75 1.75.38.56-.31-.25-1.44.38-1.81.87-.56 1.31.43 1.93 0 .56-.38-.63-1.44.13-2 .94-.75 1.25.69 2-.13.63-.69-.75-2-.43-2.56.63-1.06 2 .13 2.37-.75s-1.06-1.5-.87-2.18c.38-1.19 1.62-.13 2-.87.63-1.31-1.37-2.18-1.25-2.81.19-1 1.81-.06 2.06-.69.43-1.31-2.12-2.25-2.12-2.81 0-.75 1.31-.31 1.69-1 .87-1.37-3.18-1.93-2.99-2.87.19-1.12 2.62 0 2.87 0 .31 0 1.62 0 1.69-.69.19-1.87-8.43-3.31-8.43-4 0-.75 1.12-.63 1.31-.63 8.87 1.19 25.4 12.73 26.47 10.11.06-.25-.19-.63-.38-.75-8.18-5.87-20.1-12.36-28.78-12.61-2.12-.06-5.12 1.06-5.12 3.06s10.3 2 10.3 11.23c0 7.8-9.36 13.67-13.73 13.42-2.18-.13-2.5-3.31-3.12-3.62-2-1.06-5.93-3.06-8.62-5.37-4.74-4.06-7.18-4.93-7.68-4.93-.25 0-1.5.38-1.75.38s-.43-.13-.63-.25c.56-.75 1.12-1.5 1.81-2.18-.75-.19-1.44-.25-2.18-.31-2.31-.06-5.18 0-5.18 0-1.12 0-3.68 1.62-4.24 2.81-.81 1.56-6.74-.25-6.62 3.31 0 .38 0 .75.13 1.12 1.12-.49.93-.67 1.99-.67zm8.11-4.25c1.5.06 2.99.25 4.49.56v.43c-.56.63-1.5.5-2.18.87-.43.25-1 1.5-1.75 1.5h-1.31c-.13.56-.13 1.12 0 1.69l-.25.25c-1-.87-1.56-2.06-1.69-3.37 0-1.31 1.75-2 2.69-1.93z"/><path d="m130.74 17.99 2.66-.84.62-1.35-2.57-.21-1.08 1.03z"/><path d="m166.29 71.6-.5 2.56-1.79 9.56-1.6 1.92-2.21 1.61-.53 2.26.07.25 7.06-1.76.34 3.48 2.11 2.86 1.77-2.66.87-3.9 5.39.97 1.45 1.69 1.04-.83.5-2.14-1.12-1.58-6.15-1.17-1.15-1.08.25-6.96 1.05-3.24 2.93-4.15 4.99 7.96 2.29 2.8 1.32.27 1.16-.81.47.51 2.13 1.32 1.35-.93 2.23 2 1.99.03 1.01-1.26 2.94 2.07 1.76.04 1.05-1.42 2.05 1.02 3.18.56 1.27-.81-.9-2.79-17.43-15.2-7.94-7.11.66-.57 1.35.59 1.14.35h.89l.68-.32.62-.68 3.76 3.49 1.72-.13.74-.7 2.54 2.98 1.61.13 1.12-.77 2.57 2.45 1.37.22 1.21-.74 2.55 2.51 1.38.67 1.19-.17.68-.88 2.61 2.29 1.41.39 1.15-.25 1.09-.75.29-.82 2.53 1.57h1.16l1.29-.56.44-.82.99.12 1.64.2.99-.32.48-1.13-2.09-2.55-5.23-7.3-5.33-10.26-4.16-10.2.39-1.25-2.16-3.7-5.22-7-3.94-6.26-.08-1.37 1.69-1.24-.76-1.16-5.79-3.86-9.49-5.14-8.22-3.24-7-.7-4.03 1.74-2.82-1.04-8.91-.7-6.1 1.78-1 2.78 2.37 2.16 9.7 5.51 2.87 9.04-2 3.11-7.21-4.23-6.26-4.72-3.15-1.74.86-2.29-10.2.42-3.69 2.61-5.85 1.7-.89 2.12.78 1.89 3.16-.76 9.99 3.7 4.51 5.37 6.11 17.33 9.32 7.79 6.74 10.91 2.92 3.82.68.79.13.14.11.15.16.23.28.48z"/></g><path d="m129.59 17.03c.13 1.31.69 2.5 1.69 3.37l.25-.25c-.13-.56-.13-1.12 0-1.69h1.31c.75 0 1.31-1.25 1.75-1.5.69-.38 1.62-.25 2.18-.87v-.43c-1.5-.31-2.99-.5-4.49-.56-.93-.06-2.68.63-2.68 1.93zm2.93-.38c-.43.13-.87.25-1.31.5l-.25-.25c.25-.43.13-.81.69-.81.37.06.68.25.87.56z"/><path d="m225.15 65.59c-1.06-2.06-4.37-4.49-9.99-14.92-2.69-4.87-4.93-9.93-6.62-15.23.19-.31.38-.63.43-1 0-1.12-2.12-3.81-2.37-4.18-3.06-4.43-10.55-13.67-9.05-13.79.94 0 1.75-.75 1.87-1.69 0-1.75-6.55-5.43-6.68-5.5-7.12-3.75-14.73-8.43-22.1-9.24-.87-.06-1.69-.06-2.56 0-1.69.13-3.25.63-4.74 1.37-3.87-.94-7.05-1.69-11.48-1.31-4 .31-8.24 1-8.24 4.87 0 5.37 14.42 3.68 14.42 15.42 0 1.12-.19 2.18-.56 3.25 0 0-2.25-.19-5.55-2.31-4.81-3.12-8.74-6.43-9.8-7.12.56-.87 1-1.87 1.25-2.87 0-.25-2.56-.06-4.24-.13-2.12-.06-5.43-.19-5.43-.19-1.44.13-2.94.31-4.24 1.31-.75.56-1.12 1.56-1.87 1.93-2.99 1.56-6.93-.19-6.93 4.56 0 .31 0 2.94 1.06 2.94.25 0 1.56-1.12 1.81-1.12h1.37c.87 0 6.37 2.18 7.12 2.62 1.69.87 3.12 2.06 4.37 3.5 4.93 6.12 4.56 12.55 7.8 18.91 1 2.12 2.31 4.06 3.87 5.81 2.37 2.37 8.55 6.8 8.55 10.36 0 .25-.63 3.68-.63 3.93 0 .69.13 1.37.25 2 .06.31.06.56.25.81 0 0 .31-.5.63-1.06.19-.38.43-.69.63-1.06.19-.38.5-.69.56-.81.06 0 .5-.69 1.12-.69s1.44 1 1.62 1.12c.87.69 1.37 1.12 1.93 1.62 1.19 1.06 1.87 1.69 2.5 2.18 1.44 1.87-.06 2.87-1.37 5.87l.06.06c.38.19.25.87-.19 3.87-.13.63-.19 1.25-.25 1.81-.06.81-.31 1.69-.63 2.43-.38.63-.81.75-1.37 1.19-.63.5-.87.63-1.56 1.31v-.06c-.06.13-.5 2.62-.5 2.74v.31c1.56-5.68 9.3-2.62 9.61-7.99v-.31c0-3.81-.13-4.43-.19-5.87 1.44.43 2.74.19 2.18 2.74-.06.19-.19 2.12-.25 3.43-.06.56-.06 1.06-.06 1.12 0 .25-.19 1.5.31 2 1.19 1.25 8.55.87 8.43 3.12.06.87-.31 1.75-1 2.37-.13-.06-.25-1.12-.75-1.62-.94-1-3.37-.63-4.06-.81-.81-.25-1.62-.56-2.37-.87-.38 0-.63.31-.63.63v.06c.06.81 0 1.62-.13 2.43-.25 1.19-.81 2.31-1.56 3.25-.87-1.06-1.37-2.31-1.56-3.68-.06-.43-.06-.81 0-1.25.13-.5.38-.87.69-1.31-.06-.06 0-.19-.25-.19-.38.13-.75.25-1.06.5-1.93.56-3.81 1.06-5.81 1.44-.56.19-1.06.4-1.56.71l-.19 1.35s1.19-.43 2.69-.87c1.31-.38 2.62-.69 4-.87-.25 2.06 2.12 6.24 2.74 6.24 1.69 0 3.75-6.62 3.75-6.62h.25c1.93.56 4.49-.63 5.37 2.31 1.37-.25 2.37-1.44 2.43-2.81.06-.56-.06-1.12-.31-1.62-1-2.06-5.74-1.44-7.74-2.81-.38-.25-.43-1.12-.38-2.31.13-2.12.63-5.12.81-6.74.69-.63 1.37-1.31 2-2 .38-.43 1.19-1.75 1.19-1.75.38.5.75 1 1 1.56 2.5 3.75 4.49 8.24 7.49 8.3.43 0 .87-.25 1.19-.56.31.43.75.87 1.25 1.12.38.25.81.38 1.25.38.38 0 .75-.13 1.06-.38.06-.06.13-.06.19-.13 0 .06.06.06.06.13.87 1.12 2.18 1.75 3.62 1.75.75.06 1.5-.31 1.93-.94.81.75 2.81 1.87 3.68 1.87s2-.43 2.25-1.44c.63.31 3.25 1.5 4.18 1.5.87 0 2.87-.38 2.87-2.18 0-.19 0-.43-.06-.63-.75-3.12-6.68-6.8-8.43-8.3-2.18-1.87-4.43-3.68-6.68-5.5-.56-.5-1.12-.94-1.69-1.44-1.62-1.44-3.37-3.06-4.99-4.68-1.56-1.56-3.06-2.56-4.56-4.06 1 .43 2.12 1 2.99.87.5-.06 1-.31 1.31-.69 1.37 1.06 2.06 3.12 4.74 3.37.5-.06 1-.25 1.44-.56 1.25 1.5 2.37 3.25 4.18 2.94.43-.13.87-.38 1.12-.75.94 1 2.94 2.99 3.93 2.62s.81-.31 1.25-.69c1.19 1.06 2.43 2.94 4.37 2.99h.31c.56-.13 1-.43 1.37-.81l.81.81c.69.87 1.75 1.44 2.94 1.5 1.44.13 2.87-1.31 2.99-1.25 1 .43 2.06 1.31 3.56 1.06.81-.13 1.5-.63 1.87-1.31.06-.06.06-.13.13-.19.19.06.43.13.63.19.75.25 1.62.31 2.37.13.06 0 .13-.06.19-.13.43.18 1.24-.69.74-1.75zm-17.16-31.52c.25.69-.69 1.12-.87 1.19-2.06.69-3.12-2.37-3.56-2.06-.5.31 1.75 2.18.38 2.99-1.62.94-3.06-2-3.62-1.81-1.06.31 2.18 2.31.06 3.06-1.37.5-2.87-2.06-3.68-1.75-.75.25 2.62 1.93-.06 2.81-1.44.5-3.12-2.5-3.68-2-.43.38 1.56 1.62 0 2.56-1.93 1.12-3.06-1.81-3.56-1.19-.38.43 1.56 2 .38 2.81-1.69 1.12-3.06-1.25-3.62-.75-.56.56 1.69 2 .63 2.62-1.5.87-2.81-.87-2.99-.5-.31.5 1.69 1.81.5 2.94-1.25 1.19-3.43-1.5-3.87-.81-.38.63.94.94 1.31 1.81.19.5 0 1.06-.43 1.37-.31.19-.63.31-1 .31-1.19.19-2.43-1.5-2.94-1-.38.38.69 1.19.69 1.44-.06.63-.5 1.12-1.06 1.31-1.75.43-3.12-2.37-3.62-1.87-.31.31.63 2.12.63 2.37 0 .38-.25.63-.63.63h-.06c-2.37-.25-2.94-2.62-3.56-2.43-.69.19.43 1.69-.5 2-2.56.81-3.56-3.18-3.93-3.18-.43 0-.69.63-.56 1.06-2.62-2.62-3.87-7.74-4.24-11.74-.13-.63-.13-1.31-.06-1.93.06-.56.5-1.06 1.06-1.25.94-.06 1.87-.06 2.87 0 3.75.31 9.36-2.56 11.74-7.18 1.62-3.31 2.99-6.68 4.24-10.17.69-2.06.56-4.56 2.5-4.99.94-.19 10.74 4.68 13.3 5.62 2.47 5.18 11.46 16.79 11.84 17.73zm-62.61-29.28c0-2.06 3.31-3.25 7.37-3.25 3.81-.06 7.55.38 9.68 1.31-.25.19-.43.5-.56.81-.13.43-.06.87.19 1.25-.31-.13-.69-.19-1-.25-.06 0-5.99-.69-8.49-.43 5.12 1.19 11.36 2.18 16.67 6.18.87.69 1.81 2 1.81 2.99 0 .69-.5 1.25-.81 1.25-1.12 0-3.68-1.44-7.3-2.06-.69-.06-1.37-.13-2.06-.13.31.13 9.99 2.99 9.99 6.62 0 1.56-1.12 3.12-2.37 2.62-1.44-.63-2.12-1.25-5.5-1.87 0 0 4.93 1.87 4.93 3.68-.63 1.44-6.49 4.68-7.43 3.31-.43-.56-.69-1.25-.69-2 0-1.12.94-2.94.87-4.24-.12-13.29-15.29-12.67-15.29-15.79zm22.29 77.91c0 .87-1.93 1.44-2.37 1.44h-.63c-.13-.25-.13-.5-.13-.75 0-.56.06-1.19.19-1.75.31-1.93.81-3.87 1.37-5.74.43-.13.81-.31 1.19-.56.19.38.31.81.31 1.25v5.06l.07 1.06zm2.8-8.56c-1.06-.19-2-.69-2.69-1.5-1.44-1.37-2.62-3.06-3.5-4.87-1.87-3.81-2.5-7.93-4.24-11.48-1.69-3.31-5.55-4.62-8.05-6.24-2.62-1.87-4.62-4.56-5.68-7.61-.56-1.81-1.25-3.56-2-5.3-1.37-3.37-2.31-7.18-5.06-10.61-2.69-3.37-6.43-4.81-9.49-5.87-.81-.25-4.31-1.31-5.62-1.31-1.06 0-.87.19-2 .69-.13-.38-.13-.75-.13-1.12-.13-3.56 5.81-1.75 6.62-3.31.56-1.19 3.12-2.81 4.24-2.81 0 0 2.87-.06 5.18 0 .75.06 1.44.13 2.18.31-.69.69-1.25 1.44-1.81 2.18.19.13.38.25.63.25s1.5-.38 1.75-.38c.5 0 2.94.87 7.68 4.93 2.69 2.31 6.62 4.31 8.62 5.37.63.31.94 3.5 3.12 3.62 4.37.25 13.73-5.62 13.73-13.42 0-9.24-10.3-9.18-10.3-11.23s2.99-3.12 5.12-3.06c8.67.25 20.6 6.74 28.78 12.61.19.13.43.5.38.75-1.06 2.62-17.6-8.93-26.47-10.11-.19 0-1.31-.13-1.31.63 0 .69 8.62 2.12 8.43 4-.06.69-1.37.69-1.69.69-.25 0-2.69-1.12-2.87 0-.19.94 3.87 1.5 2.99 2.87-.38.69-1.69.25-1.69 1 0 .56 2.56 1.5 2.12 2.81-.25.63-1.87-.31-2.06.69-.13.63 1.87 1.5 1.25 2.81-.38.75-1.62-.31-2 .87-.19.69 1.25 1.31.87 2.18s-1.75-.31-2.37.75c-.31.56 1.06 1.87.43 2.56-.75.81-1.06-.63-2 .13-.75.56.43 1.62-.13 2-.63.43-1.06-.56-1.93 0-.63.38.19 1.5-.38 1.81-.56.38-1.06-.75-1.75-.38-.5.25-.13 1.19-.69 1.37-.75.25-1-.63-1.62-.5-.75.13-.56.75-1.06.81s-1-.5-1.25-.43c-.81.13-.56.63-1.06.69-.56.06-1-.56-1.25-.56-1.87 0-1.81 2.37-1.81 3.18 0 .56.06 1.12.13 1.69.19 1.31.43 2.62.87 3.87 2.18 7.43 5.81 11.36 11.8 16.04.87.69 1.87 2.06 1.93 2.69-.38-.5-.94-.81-1.56-.94-.31 0-1 .13-1 .5 0 .43 3.31 4.56 3.68 7.37.13.56.13 1.12.13 1.69v.38c-.37 1.8-1.55 6.6-4.18 6.29zm20.66-6.3c2.69 2.37 5.43 4.68 8.05 6.99 1.44 1.19 6.62 5.55 7.12 6.87 0 .06.06.13.06.19 0 .56-.38 1-.94 1h-.06c-1.37-.06-2.69-.43-3.81-1.19-1.5-1-2.94-2.12-4.24-3.37-.69-.69-1.44-1.31-2.25-1.87-.38.06 1.19 1.5 1.37 1.62 1.19 1.19 2.99 2.56 3.43 3.56.19.31.06.75-.25.94-.06 0-.13.06-.19.06-.19.13-.43.13-.69.13-.81-.19-1.5-.56-2.12-1.12-2.37-1.81-5.55-5.3-6.62-6.18-.06.06-.13.19-.06.25 1.19 1.31 3.37 3.62 4.06 5.43.06.19.06.38 0 .5 0 .06-.06.13-.13.19-.25.25-.56.19-.81.19-.38 0-.69-.13-1-.38-2.12-1.31-5.37-5.99-6.31-6.99.06.06-.13.19-.06.25.69 1.12 2.99 4.87 2.99 4.87s.69.94-.13 1.06c-.56.06-1.56-.69-2.37-1.62-1.5-1.81-3.25-4.56-3.87-5.12 0 .06-.06 0-.06.25s2.43 4.06 2.74 4.81c0 0 .5.94-.81.63-2-.43-6.43-8.37-7.8-11.92-.31-.94-.5-1.56-.31-1.69.25-.19.87.69 1.56 1.69.75 1.06 1.62 2.25 2.06 2.25.56 0 .43-.5.43-.63-.19-.56-.5-1.12-.87-1.62-.63-1-1.37-2.06-1.19-2.37.25-.38 1.25 1.06 2.18 2.37.75 1 1.44 1.93 1.81 1.93.43 0 .5-.31.5-.56-.19-.5-.43-1-.75-1.37-.81-1.19-1.87-2.62-1.56-2.87.38-.25 1.62 1.62 2.81 2.87.63.63 1.19 1.12 1.62 1.12.31-.06.5-.25.56-.56-.06-.19-.13-.43-.25-.56-.63-1-2.25-2.62-1.93-2.87.43-.31 2.43 1.56 3.93 2.87.43.43.94.81 1.5 1.12.63 0 .63-.25.63-.56-.06-.19-.13-.43-.25-.56-1.37-2.06-8.05-7.3-9.43-8.55-3.06-2.62-9.8-7.18-9.74-7.55 0 0 .31-.69.94-.56s2.18.94 2.74.87c5.82 5.18 11.81 10.56 17.74 15.8zm32.77-.94c-.19.13-.38.25-.56.25-1 .06-1.87.06-3.81-1.93-.25-.06-1.87-2.37-2.06-2.37-1.25-.06 1.12 2.94 2.81 4.43-.06.25-.25.5-.5.63-.38.19-.81.31-1.25.38-.38 0-.81-.13-1.12-.38-1.31-.75-2.74-2.56-4.24-3.56-.19-.13-.5-.25-.5-.06-.06.38 1.06 1.75 2.18 2.94.13.19-.19.5-.56.75-.43.25-.87.38-1.31.43-.56 0-1.06-.13-1.5-.43-1.56-1-3.18-3.37-4.18-4.37-.63-.63-.75-.25-.75 0 0 .19.69 1.06 1.75 2.5-.19.38-.56.63-.94.69-1.19.19-4.12-3.5-6.06-5.25-.5-.43-.63-.38-.63 0 .5.81 1.06 1.62 1.69 2.31-.19.25-.43.38-.75.43-1.25.19-4.43-4.12-5.43-4.56-.69-.31-.63-.13-.63-.06 0 .25.81 1.25 1.69 2.18-.19.38-.5.56-.87.63-1.75.13-3.62-3.87-4.99-4.81-.25-.19-.5-.31-.56-.06s.63 1.19 1.31 2.06c-.31.31-.75.5-1.19.5-1.44.19-3.87-3.56-5.5-4.62-.38-.25-.63-.31-.63-.06.31.56.63 1.06 1 1.56-.5.94-1.19.75-1.93.56-3.62-.81-8.24-5.18-9.05-5.87 0 0 .31-.31.38-.43.31-.38.13-.94.38-.94 0 0 1.31.5 2.12.19s1.31-1.37 1.56-1.81c.63.25 1.31.25 2 .06 1-.31 1.62-1.19 1.56-2.18.87.25 1.81.06 2.5-.5.5-.56.75-1.31.63-2.06 0 0 2.31.13 2.43-1.81 2.81.63 3.25-1.5 3.25-1.5.69.19 1.44.13 2.12-.13.43-.25.81-.63 1-1.06.75.56 1.69.75 2.56.5.63-.19 1.19-.63 1.5-1.25.75.31 1.56.31 2.31.06.69-.25 1.19-.69 1.5-1.37.63.38 1.37.43 2.06.19.5-.25.87-.63 1.12-1.12.43.13.87.19 1.31.19.25-.06.5-.13.75-.31 2.37 6.49 3.12 9.43 7.18 16.17 3.18 5.37 5.12 8.43 9.24 13.23 0 .15 0 .72-.37 1.09z"/></g><path d="m245.372 199.559h1.698v68.034h-1.698z" stroke-width=".6"/><path d="m297.29 90.015q-2.75 0-5.15-.475t-4.45-1.5-3.7-2.525l1.55-3.15q2.7 2.25 5.425 3.2t6.375.95q4.25 0 6.6-1.675t2.35-4.725q0-1.85-1.175-2.975t-3.2-1.8-4.575-1.275q-2.55-.55-4.85-1.275t-4.075-1.825-2.775-2.8-1-4.25q0-3.05 1.6-5.375t4.5-3.625 6.85-1.3q2.45 0 4.7.525t4.175 1.525 3.425 2.45l-1.6 3.15q-2.45-2.15-5.05-3.15t-5.65-1q-4.15 0-6.5 1.75t-2.35 4.9q0 1.95 1.05 3.15t2.95 1.925 4.35 1.325q2.6.6 5 1.3t4.275 1.725 2.975 2.65 1.1 4.125q0 3.05-1.6 5.3t-4.55 3.5-7 1.25zm15.8-22.35v-3.2h16.15v3.2zm16.05 18.35v3.45q-.85.25-1.675.375t-1.825.125q-3.5 0-5.575-2t-2.075-6v-23.95l4.05-1.45v24.85q0 2 .575 3.1t1.575 1.525 2.25.425q.75 0 1.35-.1t1.35-.35zm4.3-1.55h5.15v5.15h-5.15zm25.8 5.15v-35.6h4.1v32.1h17.85v3.5zm47.35-3q-1.65 1.55-4.225 2.45t-5.275.9q-3.9 0-6.725-1.55t-4.35-4.475-1.525-6.975q0-3.9 1.5-6.85t4.175-4.6 6.175-1.65q3.35 0 5.75 1.475t3.675 4.225 1.275 6.6v.75h-19v-2.65h16.7l-1.3 1.85q.1-4.4-1.725-6.75t-5.325-2.35q-3.65 0-5.725 2.575t-2.075 7.125q0 4.9 2.175 7.4t6.375 2.5q2.2 0 4.225-.725t3.875-2.225zm17 3.35q-3.6 0-6.275-1.6t-4.15-4.525-1.475-6.925q0-3.95 1.475-6.9t4.15-4.55 6.275-1.6 6.275 1.6 4.15 4.55 1.475 6.9q0 4-1.475 6.925t-4.15 4.525-6.275 1.6zm0-3.35q3.7 0 5.725-2.475t2.025-7.225q0-4.65-2.05-7.15t-5.7-2.5-5.725 2.5-2.075 7.15q0 4.75 2.025 7.225t5.775 2.475zm18.2 3v-18.1q0-1.75-.075-3.525t-.325-3.525h3.85l.45 5.2-.5.4q1.05-3.05 3.5-4.625t5.65-1.575q9.05 0 9.05 9.95v15.8h-4.05v-15.6q0-3.5-1.4-5.125t-4.4-1.625q-3.5 0-5.6 2.15t-2.1 5.8v14.4z" transform="matrix(.6 0 0 .6 93.428 191.051)"/></svg>