<?xml version="1.0" encoding="UTF-8"?>
<svg id="Ebene_1" data-name="Ebene 1" xmlns="http://www.w3.org/2000/svg" viewBox="0 0 308.2 14.5">
  <path d="M0,14.7v-2c1.5,0,148.7-.2,193.1-.2h1.3c3.5,0,6.8,0,9.8-1.1,4.7-1.9,6.6-1.4,9.5,0,2.7,1.4,5.2,1.4,7.5.1,3.3-2,5.1-2.1,7.7-.7.2.1.4.3.6.4,1.2.9,3.1,2.4,6.8-.4C244.4,1.2,252.9.3,253.3.2L255.8,0l-1.7,1.9c-1.1,1.2-3.7,5-2.6,7.5.9,2,4.4,3.1,10,3.1h46.7v2h-46.9c-6.4,0-10.3-1.4-11.6-4.3-1.1-2.5.1-5.4,1.3-7.3-3,1-8.2,3.4-13.2,9.4l-.1.1c-5,3.9-8,1.5-9.3.5-.2-.1-.3-.2-.4-.3-1.7-.9-2.6-1.1-5.7.7-2.9,1.7-6.1,1.6-9.4-.1-2.3-1.2-3.6-1.7-7.9,0-3.4,1.3-7,1.3-10.5,1.3h-1.3c-44.5,0-191.7.2-193.2.2Z" style="fill: #013154; stroke-width: 0px;"/>
</svg>