<?xml version="1.0" encoding="utf-8"?>
<!-- Generator: Adobe Illustrator 28.3.0, SVG Export Plug-In . SVG Version: 6.00 Build 0)  -->
<svg version="1.1" id="Ebene_2_00000043455757736339572400000011056322512037659826_"
	 xmlns="http://www.w3.org/2000/svg" xmlns:xlink="http://www.w3.org/1999/xlink" x="0px" y="0px" viewBox="0 0 1417.3 1417.3"
	 style="enable-background:new 0 0 1417.3 1417.3;" xml:space="preserve">
<style type="text/css">
	.st0{fill:#702282;}
	.st1{fill:#3157A4;}
	.st2{fill:#0C8136;}
	.st3{fill:#FEEB1A;}
	.st4{fill:#F28A1A;}
	.st5{fill:#E31013;}
	.st6{fill:#1D1D1B;}
</style>
<g>
	<g>
		<polygon class="st0" points="470.3,994.6 512.8,982.2 531.3,997.4 538.3,979.4 575.3,972.3 564,1019.8 526.7,1037.9 		"/>
		<path class="st0" d="M158.4,1053.3l33,18.7H239c0,0,29.8-27.1,29.8-27.4s4.8-17.1,4.8-17.1L158.4,1053.3z"/>
	</g>
	<g>
		<polygon class="st1" points="629.4,916.1 637.5,927.6 689.9,920.9 708.7,899.7 		"/>
		<polygon class="st1" points="777,888.1 940.4,857.1 942.5,864.7 967.2,852.3 994.7,847.1 996.4,858 926.6,896.4 911.3,866.9 
			898.3,869.1 855.7,899.9 845.3,899.9 842.2,884.9 806.1,905.1 780.1,907.4 		"/>
		<polygon class="st1" points="476.3,995.7 517.4,987.9 510.9,981.5 476.3,991.6 		"/>
		<polygon class="st1" points="537.4,984 575,976.8 587.3,923.4 549.1,932 		"/>
		<polygon class="st1" points="158.9,1056.5 270.3,1035.2 284.9,982.4 234.1,990.6 223.4,1019.5 198.8,1028.5 187.9,1016.4 
			186,1001.4 138.3,1009.9 143.4,1043.6 		"/>
		<polygon class="st1" points="724.5,902.1 724.5,897.9 733,897.3 730.2,901.6 		"/>
	</g>
	<g>
		<polygon class="st2" points="628.3,918.6 709.1,903.1 709.1,890.7 697.6,880.6 675.8,902.1 657.4,890.8 698.5,855.2 612.8,871.1 
			603,887.8 		"/>
		<polygon class="st2" points="779.3,889.7 939.3,859.1 947.3,806.7 892.5,817.5 889.5,834.3 869.4,839.4 877.4,820.6 841.1,827.2 
			830.9,856.9 810.7,859.5 799.7,834.3 723.6,849.6 725,900.1 731.2,898.9 745.2,893.6 767.1,848 		"/>
		<polygon class="st2" points="546.6,934.3 585.4,926.9 598.2,873.6 560.5,880 555.9,897.1 518.7,889.8 492.8,894.3 457.2,913.7 
			441.3,912.2 436.4,903.9 387.1,912.2 376.9,929.5 355,929.5 354,918.6 315.5,925.8 315.5,940.8 342.5,964 381,959.5 411,930.5 
			422.9,951.1 464.6,944.9 490.6,911.6 511.2,933.9 549.9,923.4 		"/>
		<polygon class="st2" points="137.5,1012.7 185.5,1003.5 185.5,993 138.3,986.5 		"/>
		<polygon class="st2" points="233.5,994.3 287.1,984 299.4,929.5 247.6,938.8 		"/>
		<path class="st2" d="M727.8,854.6c1,7.9-2.6,16.7-1,24.9c0,0.6-0.1,1.2-0.1,1.8c-0.5,6.2-1.6,12.4-1,18.4l4.6-0.9
			c2.3-1.8,4.1-4.2,7.3-4.9c2.1-4.2,4.1-8.4,6-12.6c4.2-9.2,8-18.6,11.4-28c1.5-2.3,2.2-5.2,3-7.9l-30,5.8
			C727.8,852.3,727.8,853.5,727.8,854.6L727.8,854.6z"/>
		<polygon class="st2" points="964.2,854.3 995.7,848.3 987.1,841.5 		"/>
	</g>
	<g>
		<polygon class="st3" points="724.5,851.9 729.5,805.9 774.5,807.6 773.2,819.8 793.2,817.1 799.6,837.6 		"/>
		<polygon class="st3" points="840.6,829.7 852.3,798.5 898.3,778.3 909.9,779.1 916,764.9 963,755.7 955.1,776.4 947.8,809.2 
			892.4,819.8 891.1,809.9 877,822.7 		"/>
		<path class="st3" d="M690.8,806.7l-24.3,3.6l-53.3,62.9l81.1-15.5L690.8,806.7z M654.2,860.5l-8.4-1.6l20.7-22l4.6,13.9
			L654.2,860.5z"/>
		<polygon class="st3" points="491.5,896.6 520.3,891.1 538,867.5 556.7,869.9 560.9,883.3 596.6,876.5 604.7,839.3 573,826.2 
			566.5,842.3 520.1,827.8 507.6,834 		"/>
		<polygon class="st3" points="385.2,917 439.5,906.6 443.5,856.5 405.2,863.8 		"/>
		<polygon class="st3" points="314.4,930.5 353.4,923 367.4,870.6 326.2,877.6 		"/>
		<polygon class="st3" points="245,943.8 300.2,933.2 308.5,879.9 257.8,890.1 		"/>
	</g>
	<g>
		<polygon class="st4" points="915.5,767.3 936.9,713.7 977.8,705 983.9,712.9 963,758.2 		"/>
		<polygon class="st4" points="327.6,879.9 366.2,872.5 368.8,861 331.2,862.1 		"/>
		<polygon class="st4" points="258.3,893.2 265.2,851.7 246.3,853.5 246.3,837.7 324.7,825.1 311,883.1 		"/>
		<polygon class="st4" points="568.6,833.7 585.8,830.4 575.3,825.8 		"/>
		<polygon class="st4" points="408.8,864.4 434.8,859.4 413.8,856.9 		"/>
		<path class="st4" d="M542.5,838.2c-7.9-2-15.1-6.2-23.3-7.2c-4.3,0.7-7.5,3.6-8.5,7.9c-0.5,2-1,4.1-1.5,6.1l33.8-6.5
			C542.9,838.4,542.7,838.3,542.5,838.2L542.5,838.2z"/>
		<polygon class="st4" points="665.5,815.2 689.5,810.6 689.2,806 669.9,808.4 		"/>
	</g>
	<g>
		<polygon class="st5" points="937.8,714.8 954.4,686.7 980.8,706.5 		"/>
		<polygon class="st5" points="158.4,864 325.7,832 335,782.9 251.9,798 160.9,816.3 		"/>
	</g>
	<g>
		<path d="M638.3,674c-5.6-2.6-11.8-2-20-2h-25.9v25.6h25.9c9.8,0,14.1,0.7,20-1.6c6.6-2.6,5.9-8.5,5.9-11.1
			C644.2,682.3,645.1,677.3,638.3,674L638.3,674z"/>
		<path d="M939.9,678.6c0.7-7.5,2-19.7,1.6-22.6c-1-7.5-6.9-15.4-13.1-22.6c-7.5-8.2-14.4-11.1-22.6-18H117v191h47.5l184.2-36.7
			l-9.2,37h317c3-1.6,4.3-2,6.9-3.3c3.3-1.6,6.9-3.3,10.2-4.3c4.9-1.3,9.8-2,15.1-2c3-0.3,5.9,1,7.9,3c1.3,2,2.3,4.3,3,6.6h18l1.6-3
			c2-3.3,3-5.9,6.2-5.9c16.7,0,32.1-0.3,49.8,0c1.6-0.3,3,0.3,3.9,1.6c2,3,2.6,4.6,4.3,7.2l58-0.3c2.6-5.9,3.9-9.2,7.5-16.1v-0.3
			c0.2,0,0.4-0.1,0.7-0.3c13.8-5.9,30.5-12.8,45.6-19.7c0.7-0.3,1.3-0.7,2-0.3c3,1,6.2,2,7.5,2.6c1,0.3,1,1,1.3-0.7
			c3.9-13.8,8.8-27.5,14.1-41l20.3-36.7C939.2,689.4,940.2,683.8,939.9,678.6L939.9,678.6z M335,738.9c0,7.2-2,20.6-13.1,25.9
			c-11.1,5.2-27.9,3.9-43.6,3.9H164.9V651.4h113.4c15.4,0,32.5-1,43.6,4.3c11.1,5.2,13.1,18.7,13.1,25.9V738.9L335,738.9z
			 M505.8,768.7H368.5V651.4h59.7v85.9h77.7L505.8,768.7L505.8,768.7z M673.7,709.4c6.9-0.3,13.8,1,20,3.9c4.9,2.6,8.2,7.5,8.5,13.1
			v42.3h-59.7v-37c0-3.6,0.3-9.5-4.9-10.8c-5.9-1.6-9.5-1.3-18.7-1.3h-26.5v49.5h-59.7V651.4h112.8c13.1,0,27.9-1,38.4,3.6
			c12.1,5.2,18.4,11.5,18.4,24.3v3.3c0,10.2-4.3,15.1-13.1,20.6c-8.5,5.2-19.3,6.2-39.7,6.2L673.7,709.4L673.7,709.4z M902.2,682.8
			h-57c-2-8.5-6.9-10.8-18.4-10.8h-18.4c-12.5,0-17,3.9-17,11.1v51.8c0,6.2,1,8.9,5.9,11.5c3.9,2,10.8,1.6,18.7,1.6h14.4
			c13.8,0,14.8-7.2,14.8-15.1v-13.8h-28.5v-21.3h85.2v44.9c-0.3,11.1-7.9,20.6-18.4,23.6c-12.5,3.3-24.6,2.6-38.4,2.6h-56.7
			c-18.7,0.3-35.1,1.6-44.6-4.9c-7.2-4.6-11.8-12.5-12.1-21v-65.2c0-9.2,5.2-15.7,12.1-21c8.5-6.6,25.9-4.9,44.6-4.9h56.7
			c22.3,0,37.4,0,45.6,5.6C903.5,665.8,902.2,682.8,902.2,682.8L902.2,682.8L902.2,682.8z"/>
		<path d="M270.1,684.8c-7.5-3-12.8-2-20.3-2.3h-25.6v54.8h25.6c7.5,0,12.8,1,20.3-2.3c5.9-2.3,5.2-11.1,5.2-14.8v-21.3
			C275.4,696,276,687.1,270.1,684.8L270.1,684.8z"/>
		<path d="M1299.5,680.9c-5.6-10.8-22.9-23.6-52.4-78.4c-14.1-25.6-25.9-52.1-34.8-80c1-1.6,2-3.3,2.3-5.2c0-5.9-11.2-20-12.5-22
			c-16.1-23.3-55.4-71.8-47.5-72.5c4.9,0,9.2-3.9,9.8-8.8c0-9.2-34.4-28.5-35.1-28.8c-37.4-19.7-77.4-44.3-116-48.5
			c-4.6-0.3-8.8-0.3-13.4,0c-8.8,0.7-17,3.3-24.9,7.2c-20.3-4.9-37-8.9-60.3-6.9c-21,1.6-43.3,5.2-43.3,25.6
			c0,28.2,75.7,19.3,75.7,81c0,5.9-1,11.5-3,17.1c0,0-11.8-1-29.2-12.1c-25.2-16.4-45.9-33.8-51.5-37.4c3-4.6,5.2-9.8,6.6-15.1
			c0-1.3-13.4-0.3-22.3-0.7c-11.2-0.3-28.5-1-28.5-1c-7.5,0.7-15.4,1.6-22.3,6.9c-3.9,2.9-5.9,8.2-9.8,10.2
			c-15.7,8.2-36.4-1-36.4,23.9c0,1.6,0,15.4,5.6,15.4c1.3,0,8.2-5.9,9.5-5.9h7.2c4.6,0,33.4,11.5,37.4,13.8
			c8.8,4.6,16.4,10.8,23,18.4c25.9,32.1,23.9,65.9,41,99.3c5.2,11.1,12.1,21.3,20.3,30.5c12.5,12.5,44.9,35.7,44.9,54.4
			c0,1.3-3.3,19.3-3.3,20.6c0,3.6,0.7,7.2,1.3,10.5c0.3,1.6,0.3,3,1.3,4.3c0,0,1.6-2.6,3.3-5.6c1-2,2.3-3.6,3.3-5.6s2.6-3.6,3-4.3
			c0.3,0,2.6-3.6,5.9-3.6s7.5,5.2,8.5,5.9c4.6,3.6,7.2,5.9,10.2,8.5c6.2,5.6,9.8,8.9,13.1,11.5c7.5,9.8-0.3,15.1-7.2,30.8l0.3,0.3
			c2,1,1.3,4.6-1,20.3c-0.7,3.3-1,6.6-1.3,9.5c-0.3,4.3-1.6,8.9-3.3,12.8c-2,3.3-4.3,3.9-7.2,6.2c-3.3,2.6-4.6,3.3-8.2,6.9V790l0,0
			c-0.3,0.7-2.6,13.8-2.6,14.4v1.6c8.2-29.8,48.8-13.8,50.5-42v-1.6c0-20-0.7-23.3-1-30.8c7.5,2.3,14.4,1,11.5,14.4
			c-0.3,1-1,11.1-1.3,18c-0.3,3-0.3,5.6-0.3,5.9c0,1.3-1,7.9,1.6,10.5c6.2,6.6,44.9,4.6,44.3,16.4c0.3,4.6-1.6,9.2-5.2,12.5
			c-0.7-0.3-1.3-5.9-3.9-8.5c-4.9-5.2-17.7-3.3-21.3-4.3c-4.3-1.3-8.5-3-12.5-4.6c-2,0-3.3,1.6-3.3,3.3v0.3c0.3,4.3,0,8.5-0.7,12.8
			c-1.3,6.2-4.3,12.1-8.2,17.1c-4.6-5.6-7.2-12.1-8.2-19.3c-0.3-2.3-0.3-4.3,0-6.6c0.7-2.6,2-4.6,3.6-6.9c-0.3-0.3,0-1-1.3-1
			c-2,0.7-3.9,1.3-5.6,2.6c-10.2,3-20,5.6-30.5,7.5c-3,1-5.9,2.3-8.5,3.9v-0.3v0.3l0,0c0,2.6-0.7,6.9-0.7,6.9s6.2-2.3,14.1-4.6
			c6.9-2,13.8-3.6,21-4.6c-1.3,10.8,11.2,32.8,14.4,32.8c8.8,0,19.7-34.8,19.7-34.8h1.3c10.2,3,23.6-3.3,28.2,12.1
			c7.2-1.3,12.5-7.5,12.8-14.8c0.3-3-0.3-5.9-1.6-8.5c-5.2-10.8-30.2-7.5-40.7-14.8c-2-1.3-2.3-5.9-2-12.1
			c0.7-11.1,3.3-26.9,4.3-35.4c3.6-3.3,7.2-6.9,10.5-10.5c2-2.3,6.2-9.2,6.2-9.2c2,2.6,3.9,5.2,5.2,8.2
			c13.1,19.7,23.6,43.3,39.3,43.6c2.3,0,4.6-1.3,6.2-3c1.6,2.3,3.9,4.6,6.6,5.9c2,1.3,4.3,2,6.6,2c2,0,3.9-0.7,5.6-2
			c0.3-0.3,0.7-0.3,1-0.7c0,0.3,0.3,0.3,0.3,0.7c4.6,5.9,11.5,9.2,19,9.2c3.9,0.3,7.9-1.6,10.2-4.9c4.3,3.9,14.8,9.8,19.3,9.8
			s10.5-2.3,11.8-7.5c3.3,1.6,17.1,7.9,22,7.9c4.6,0,15.1-2,15.1-11.5c0-1,0-2.3-0.3-3.3c-3.9-16.4-35.1-35.7-44.3-43.6
			c-11.5-9.8-23.3-19.3-35.1-28.9c-2.9-2.6-5.9-4.9-8.8-7.5c-8.5-7.5-17.7-16.1-26.2-24.6c-8.2-8.2-16.1-13.4-23.9-21.3
			c5.2,2.3,11.2,5.2,15.7,4.6c2.6-0.3,5.2-1.6,6.9-3.6c7.2,5.6,10.8,16.4,24.9,17.7c2.6-0.3,5.2-1.3,7.5-3c6.6,7.9,12.5,17,22,15.4
			c2.3-0.7,4.6-2,5.9-3.9c4.9,5.2,15.4,15.7,20.7,13.8c5.2-2,4.3-1.6,6.6-3.6c6.2,5.6,12.8,15.4,22.9,15.7h1.6
			c2.9-0.7,5.2-2.3,7.2-4.3c1.6,1.6,2.9,3,4.3,4.3c3.6,4.6,9.2,7.5,15.4,7.9c7.5,0.7,15.1-6.9,15.7-6.6c5.2,2.3,10.8,6.9,18.7,5.6
			c4.3-0.7,7.9-3.3,9.8-6.9c0.3-0.3,0.3-0.7,0.7-1c1,0.3,2.3,0.7,3.3,1c3.9,1.3,8.5,1.6,12.5,0.7c0.3,0,0.7-0.3,1-0.7
			C1297.8,691.1,1302.1,686.5,1299.5,680.9L1299.5,680.9z M1209.3,515.3c1.3,3.6-3.6,5.9-4.6,6.2c-10.8,3.6-16.4-12.5-18.7-10.8
			c-2.6,1.6,9.2,11.5,2,15.7c-8.5,4.9-16.1-10.5-19-9.5c-5.6,1.6,11.5,12.1,0.3,16.1c-7.2,2.6-15.1-10.8-19.3-9.2
			c-3.9,1.3,13.8,10.2-0.3,14.8c-7.5,2.6-16.4-13.1-19.3-10.5c-2.3,2,8.2,8.5,0,13.4c-10.2,5.9-16.1-9.5-18.7-6.2
			c-2,2.3,8.2,10.5,2,14.8c-8.8,5.9-16.1-6.6-19-3.9c-3,2.9,8.8,10.5,3.3,13.8c-7.9,4.6-14.8-4.6-15.7-2.6
			c-1.6,2.6,8.8,9.5,2.6,15.4c-6.6,6.2-18-7.9-20.3-4.3c-2,3.3,4.9,4.9,6.9,9.5c1,2.6,0,5.6-2.3,7.2c-1.6,1-3.3,1.6-5.2,1.6
			c-6.2,1-12.8-7.9-15.4-5.2c-2,2,3.6,6.2,3.6,7.5c-0.3,3.3-2.6,5.9-5.6,6.9c-9.2,2.3-16.4-12.5-19-9.8c-1.6,1.6,3.3,11.1,3.3,12.5
			c0,2-1.3,3.3-3.3,3.3h-0.3c-12.5-1.3-15.4-13.8-18.7-12.8c-3.6,1,2.3,8.9-2.6,10.5c-13.4,4.3-18.7-16.7-20.7-16.7
			c-2.3,0-3.6,3.3-3,5.6C968.5,574.8,962,548,960,527c-0.7-3.3-0.7-6.9-0.3-10.2c0.3-2.9,2.6-5.6,5.6-6.6c4.9-0.3,9.8-0.3,15.1,0
			c19.7,1.6,49.2-13.4,61.6-37.7c8.5-17.4,15.7-35.1,22.3-53.4c3.6-10.8,3-23.9,13.1-26.2c4.9-1,56.4,24.6,69.8,29.5
			C1160.2,449.4,1207.4,510.4,1209.3,515.3L1209.3,515.3z M880.5,361.6c0-10.8,17.4-17,38.7-17c20-0.3,39.7,2,50.8,6.9
			c-1.3,1-2.3,2.6-3,4.3c-0.7,2.3-0.3,4.6,1,6.6c-1.6-0.7-3.6-1-5.2-1.3c-0.3,0-31.5-3.6-44.6-2.3c26.9,6.2,59.7,11.5,87.5,32.5
			c4.6,3.6,9.5,10.5,9.5,15.7c0,3.6-2.6,6.6-4.3,6.6c-5.9,0-19.3-7.5-38.4-10.8c-3.6-0.3-7.2-0.7-10.8-0.7
			c1.6,0.7,52.5,15.7,52.5,34.8c0,8.2-5.9,16.4-12.5,13.8c-7.5-3.3-11.2-6.6-28.8-9.8c0,0,25.9,9.8,25.9,19.3
			c-3.3,7.5-34.1,24.6-39,17.4c-2.3-2.9-3.6-6.6-3.6-10.5c0-5.9,4.9-15.4,4.6-22.3C960.2,374.7,880.5,378,880.5,361.6L880.5,361.6z
			 M997.6,770.7c0,4.6-10.2,7.5-12.5,7.5h-3.3c-0.7-1.3-0.7-2.6-0.7-3.9c0-3,0.3-6.2,1-9.2l0,0c1.6-10.2,4.3-20.3,7.2-30.2
			c2.3-0.7,4.3-1.6,6.2-3c1,2,1.6,4.3,1.6,6.6V765l0,0v5.6L997.6,770.7L997.6,770.7z M1012.3,725.8c-5.6-1-10.5-3.6-14.1-7.9
			c-7.5-7.2-13.8-16.1-18.4-25.6c-9.8-20-13.1-41.6-22.3-60.3c-8.8-17.4-29.2-24.3-42.3-32.8c-13.8-9.8-24.3-23.9-29.8-40
			c-3-9.5-6.6-18.7-10.5-27.9c-7.2-17.7-12.1-37.7-26.5-55.7c-14.1-17.7-33.8-25.2-49.8-30.8c-4.3-1.3-22.6-6.9-29.5-6.9
			c-5.6,0-4.6,1-10.5,3.6c-0.7-2-0.7-3.9-0.7-5.9c-0.7-18.7,30.5-9.2,34.8-17.4c3-6.2,16.4-14.8,22.3-14.8c0,0,15.1-0.3,27.2,0
			c3.9,0.3,7.5,0.7,11.5,1.6c-3.6,3.6-6.6,7.5-9.5,11.5c1,0.7,2,1.3,3.3,1.3s7.9-2,9.2-2c2.6,0,15.4,4.6,40.3,25.9
			c14.1,12.1,34.8,22.6,45.2,28.2c3.3,1.6,4.9,18.4,16.4,19c23,1.3,72.1-29.5,72.1-70.5c0-48.5-54.1-48.2-54.1-59
			s15.7-16.4,26.9-16.1c45.6,1.3,108.2,35.4,151.1,66.2c1,0.7,2.3,2.6,2,3.9c-5.6,13.8-92.5-46.9-139-53.1c-1,0-6.9-0.7-6.9,3.3
			c0,3.6,45.2,11.2,44.3,21c-0.3,3.6-7.2,3.6-8.8,3.6c-1.3,0-14.1-5.9-15.1,0c-1,4.9,20.3,7.9,15.7,15.1c-2,3.6-8.8,1.3-8.8,5.2
			c0,2.9,13.4,7.9,11.2,14.8c-1.3,3.3-9.8-1.6-10.8,3.6c-0.7,3.3,9.8,7.9,6.6,14.8c-2,3.9-8.5-1.6-10.5,4.6c-1,3.6,6.6,6.9,4.6,11.5
			s-9.2-1.6-12.5,3.9c-1.6,2.9,5.6,9.8,2.3,13.4c-3.9,4.3-5.6-3.3-10.5,0.7c-3.9,2.9,2.3,8.5-0.7,10.5c-3.3,2.3-5.6-2.9-10.2,0
			c-3.3,2,1,7.9-2,9.5c-3,2-5.6-3.9-9.2-2c-2.6,1.3-0.7,6.2-3.6,7.2c-3.9,1.3-5.2-3.3-8.5-2.6c-3.9,0.7-3,3.9-5.6,4.3
			s-5.2-2.6-6.6-2.3c-4.3,0.7-3,3.3-5.6,3.6c-3,0.3-5.2-2.9-6.6-2.9c-9.8,0-9.5,12.5-9.5,16.7c0,2.9,0.3,5.9,0.7,8.9
			c1,6.9,2.3,13.8,4.6,20.3c11.5,39,30.5,59.7,62,84.2c4.6,3.6,9.8,10.8,10.2,14.1c-2-2.6-4.9-4.3-8.2-4.9c-1.6,0-5.2,0.7-5.2,2.6
			c0,2.3,17.4,23.9,19.3,38.7c0.7,3,0.7,5.9,0.7,8.9v2C1032.3,702.2,1026.1,727.4,1012.3,725.8L1012.3,725.8z M1120.8,692.7
			c14.1,12.5,28.5,24.6,42.3,36.7c7.5,6.2,34.8,29.2,37.4,36.1c0,0.3,0.3,0.7,0.3,1c0,3-2,5.2-4.9,5.2h-0.3
			c-7.2-0.3-14.1-2.3-20-6.2c-7.9-5.2-15.4-11.1-22.3-17.7c-3.6-3.6-7.5-6.9-11.8-9.8c-2,0.3,6.2,7.9,7.2,8.5
			c6.2,6.2,15.7,13.4,18,18.7c1,1.6,0.3,3.9-1.3,4.9c-0.3,0-0.7,0.3-1,0.3c-1,0.7-2.3,0.7-3.6,0.7c-4.3-1-7.9-3-11.2-5.9
			c-12.5-9.5-29.2-27.9-34.8-32.5c-0.3,0.3-0.7,1-0.3,1.3c6.2,6.9,17.7,19,21.3,28.5c0.3,1,0.3,2,0,2.6c0,0.3-0.3,0.7-0.7,1
			c-1.3,1.3-2.9,1-4.3,1c-2,0-3.6-0.7-5.2-2c-11.2-6.9-28.2-31.5-33.1-36.7c0.3,0.3-0.7,1-0.3,1.3c3.6,5.9,15.7,25.6,15.7,25.6
			s3.6,4.9-0.7,5.6c-3,0.3-8.2-3.6-12.5-8.5c-7.9-9.5-17-23.9-20.3-26.9c0,0.3-0.3,0-0.3,1.3s12.8,21.3,14.4,25.2
			c0,0,2.6,4.9-4.3,3.3c-10.5-2.3-33.8-43.9-41-62.6c-1.6-4.9-2.6-8.2-1.6-8.9c1.3-1,4.6,3.6,8.2,8.9c3.9,5.6,8.5,11.8,10.8,11.8
			c3,0,2.3-2.6,2.3-3.3c-1-3-2.6-5.9-4.6-8.5c-3.3-5.2-7.2-10.8-6.2-12.5c1.3-2,6.6,5.6,11.5,12.5c3.9,5.2,7.5,10.2,9.5,10.2
			c2.3,0,2.6-1.6,2.6-3c-1-2.6-2.3-5.2-3.9-7.2c-4.3-6.2-9.8-13.8-8.2-15.1c2-1.3,8.5,8.5,14.8,15.1c3.3,3.3,6.2,5.9,8.5,5.9
			c1.6-0.3,2.6-1.3,3-3c-0.3-1-0.7-2.3-1.3-3c-3.3-5.2-11.8-13.8-10.2-15.1c2.3-1.6,12.8,8.2,20.7,15.1c2.3,2.3,4.9,4.3,7.9,5.9
			c3.3,0,3.3-1.3,3.3-3c-0.3-1-0.7-2.3-1.3-3c-7.2-10.8-42.3-38.4-49.5-44.9c-16.1-13.8-51.5-37.7-51.1-39.7c0,0,1.6-3.6,4.9-3
			c3.3,0.6,11.5,4.9,14.4,4.6C1058.2,636.9,1089.6,665.1,1120.8,692.7L1120.8,692.7z M1292.9,687.8c-1,0.7-2,1.3-2.9,1.3
			c-5.2,0.3-9.8,0.3-20-10.2c-1.3-0.3-9.8-12.5-10.8-12.5c-6.6-0.3,5.9,15.4,14.8,23.3c-0.3,1.3-1.3,2.6-2.6,3.3c-2,1-4.3,1.6-6.6,2
			c-2,0-4.3-0.7-5.9-2c-6.9-3.9-14.4-13.4-22.3-18.7c-1-0.7-2.6-1.3-2.6-0.3c-0.3,2,5.6,9.2,11.5,15.4c0.7,1-1,2.6-2.9,3.9
			c-2.3,1.3-4.6,2-6.9,2.3c-2.9,0-5.6-0.7-7.9-2.3c-8.2-5.2-16.7-17.7-22-23c-3.3-3.3-3.9-1.3-3.9,0c0,1,3.6,5.6,9.2,13.1
			c-1,2-2.9,3.3-4.9,3.6c-6.2,1-21.6-18.4-31.8-27.5c-2.6-2.3-3.3-2-3.3,0c2.6,4.3,5.6,8.5,8.8,12.1c-1,1.3-2.3,2-3.9,2.3
			c-6.6,1-23.3-21.6-28.5-23.9c-3.6-1.6-3.3-0.7-3.3-0.3c0,1.3,4.3,6.6,8.8,11.5c-1,2-2.6,3-4.6,3.3c-9.2,0.7-19-20.3-26.2-25.2
			c-1.3-1-2.6-1.6-2.9-0.3s3.3,6.2,6.9,10.8c-1.6,1.6-3.9,2.6-6.2,2.6c-7.5,1-20.3-18.7-28.8-24.3c-2-1.3-3.3-1.6-3.3-0.3
			c1.6,3,3.3,5.6,5.2,8.2c-2.6,4.9-6.2,3.9-10.2,3c-19-4.3-43.3-27.2-47.5-30.8c0,0,1.6-1.6,2-2.3c1.6-2,0.7-4.9,2-4.9
			c0,0,6.9,2.6,11.2,1c4.3-1.6,6.9-7.2,8.2-9.5c3.3,1.3,6.9,1.3,10.5,0.3c5.2-1.6,8.5-6.2,8.2-11.5c4.6,1.3,9.5,0.3,13.1-2.6
			c2.6-3,3.9-6.9,3.3-10.8c0,0,12.1,0.7,12.8-9.5c14.8,3.3,17-7.9,17-7.9c3.6,1,7.5,0.7,11.2-0.7c2.3-1.3,4.3-3.3,5.2-5.6
			c3.9,2.9,8.8,3.9,13.4,2.6c3.3-1,6.2-3.3,7.9-6.6c3.9,1.6,8.2,1.6,12.1,0.3c3.6-1.3,6.2-3.6,7.9-7.2c3.3,2,7.2,2.3,10.8,1
			c2.6-1.3,4.6-3.3,5.9-5.9c2.3,0.7,4.6,1,6.9,1c1.3-0.3,2.6-0.7,3.9-1.6c12.5,34.1,16.4,49.5,37.7,84.9
			c16.7,28.2,26.9,44.3,48.5,69.5C1294.9,682.8,1294.9,685.8,1292.9,687.8L1292.9,687.8z"/>
		<path class="st6" d="M797.6,425.8c0.7,6.9,3.6,13.1,8.8,17.7l1.3-1.3c-0.7-3-0.7-5.9,0-8.9h6.9c3.9,0,6.9-6.6,9.2-7.9
			c3.6-2,8.5-1.3,11.5-4.6v-2.3c-7.9-1.6-15.7-2.6-23.6-2.9C806.8,415.3,797.6,418.9,797.6,425.8L797.6,425.8z M813,423.9
			c-2.3,0.7-4.6,1.3-6.9,2.6l-1.3-1.3c1.3-2.3,0.7-4.3,3.6-4.3C810.4,421.2,812,422.2,813,423.9L813,423.9z"/>
		<g>
			<path d="M569.4,1020.8c0.5-2.2,0.9-4.3,1.4-6.5c2.8-12.9,5.6-25.7,8.5-38.4c2.1-9.4,4.3-18.7,6.4-28.1c1.7-7.4,3.4-14.8,5.1-22.3
				c2.5-10.8,4.9-21.7,7.4-32.6l1-0.3c7.2,9.1,15.5,18,23.6,26.8c3.3,3.5,6.6,7.1,9.8,10.6l5.6,3.3c13.8-0.3,27.2-1.6,40.7-3.9
				c17.7,1.6,25.9-15.4,36.4-24.6c1.6,1.3,0.7,3.6,1.3,5.6c1,2.6,3.3,4.3,5.9,4.6c7.5-4.6,16.4-7.2,23.6-13.1c1-2.2,1.9-4.3,2.7-6.5
				c1.8-4.7,3.5-9.3,5.3-13.9c3.2-8,6.8-15.8,12.3-22.8c2.4,7.4,4.2,15.1,5.5,22.8c0.5,3.1,1,6.2,1.4,9.2c0.4,3.2,0.7,6.4,0.9,9.6
				c1.6,3.9,0,12.8,7.2,12.8c12.1-1.3,23-1.3,34.4-4.3c8.5-5.2,14.1-12.5,23-17c3.6,3.9-0.3,12.5,5.2,15.4l14.4-0.3
				c10.6-8.5,21.4-17.1,32.5-25.4c5.1-3.8,10.2-7.6,15.3-11.3l2.3-0.3c1.4,4,2.7,7.8,4,11.6c2.2,6.3,4.3,12.6,6.1,19.2
				c1.6,3.3,3.3,8.2,7.9,7.2c13.3-9.3,27.3-17.2,40.4-26.4c2.1-1.4,4.1-2.9,6.1-4.4c9.5-7.9,23-13.4,32.1-22.3
				c0.7-3,0.7-5.9-1.3-6.6c-0.6-0.4-1.3-0.9-1.9-1.4c-4.8-3.8-9.4-9.6-15.5-11.1c-12.5,6.6-23.3,14.1-36.1,18.7l-1.3-1
				c0.3-12.8,1-25.6,2.2-38.5c0.2-2.2,0.5-4.5,0.7-6.7c0.1-1,0.2-2,0.3-3c0,0,4.3-31.1,7.2-32.5c1.5-5.3,3.4-10.3,5.7-15.2
				c0.7-1.5,1.4-3,2.2-4.5s1.6-3.1,2.4-4.6c2.8-5.5,5.4-11.1,7.4-17l8.5-17c0.9-3.1,0.1-6.3-2-8.5c-0.1-0.1-0.2-0.2-0.3-0.3
				L954.5,682c-2.3,1.6-4.3,3.6-5.6,6.2c-0.6,0.2-8,13.8-15.5,27.3c-4,7.4-8.1,14.7-11.1,19.9c-1.6,4.4-3.1,8.7-4.6,13.1
				c-2.2,6.5-4.3,12.9-6.4,19.4c-0.8,2.5-1.6,5-2.4,7.5c-3,4.6-7.5-1.3-11.8-1l-44.9,19c-2.3,4.9-4.6,9.5-6.6,14.8
				c-0.8,2.2-1.7,4.5-2.5,6.8c-1.9,5.1-3.8,10.2-5.9,15.3c-3.1,7.9-6.4,15.7-10,23.5c-5.2-0.7-11.2,3.6-15.4,0.3
				c-2.2-6-4.3-11.9-6.5-17.8c-1.1-2.8-2.2-5.7-3.4-8.5c-1.3-4.5-2.8-8.7-4.6-12.9c-0.4-1.1-0.9-2.1-1.3-3.2
				c-4-0.2-7.7,1.6-11.4,3.2c-2.1,0.9-4.2,1.7-6.3,2.1c-0.3-0.7-0.4-1.4-0.3-2.1c0.2-2,1.6-3.9,1.3-6.1c-1-3-1.3-7.9-5.9-7.2
				l-42.8,0.9l-4.4,0.1c-0.3,0.3-0.7,0.6-1,0.9c-1.7,1.8-2.7,4.1-3.3,6.6c-0.2,1.6-0.4,3.2-0.6,4.8c-1.6,12.6-2.6,25.3-2.9,38
				c-0.1,5.2-0.2,10.3-0.1,15.5c-0.7,3.9-0.8,8.4-1,13c-0.1,3.8-0.2,7.5-0.7,11c-4.6-1.3-5.2-5.2-8.8-8.2c-1-0.8-2-1.8-2.9-2.8
				c-2.5-2.8-4.8-6-8.6-5.7c-1.8,1.9-3.6,3.8-5.4,5.7c-4.9,5.3-9.6,10.5-14.6,15.6l-3,1c-3-2.3-7.2-3.6-8.5-6.9
				c4.1-3.5,8.5-6.7,13-9.7c3.2-2.1,6.4-4,9.6-5.7c4.9-3.9,14.1-3.9,14.4-11.8c0-2.6-0.2-5.1-0.3-7.7c-0.7-12.8-2.2-25.7-5-38.5
				c-0.3-0.8-0.6-1.8-0.8-2.7c-0.4-1.8-0.6-3.8-0.9-5.6c-0.7-4-1.8-7.5-6.2-8c-5.9,0-11.8,1.3-17.4,3.6c-4.6,2-11.5,4.6-14.1,7.2
				c-0.9,0.9-1.7,1.9-2.6,2.8c-0.8,0.9-1.6,1.7-2.4,2.6c-12.6,13.7-25.7,27.7-37,42.1c-3.8,4.5-6,10.8-9.8,15
				c-1.1,1.2-2.4,2.3-3.9,3.1c0.1-0.8,0.2-1.6,0.4-2.4c1.1-7,3.4-13.9,4.2-21.2c2-5.2,4.9-13.1,0.7-17.7c-5.2-2.2-10.5-4.7-15.8-7.1
				c-5-2.3-10-4.6-15-6.7c-8.9-4.6-7.2,5.9-10,11.5c-0.4,0.8-0.9,1.5-1.5,2l-5.6,0.3c-0.5-0.2-1-0.4-1.6-0.7
				c-11.6-4.9-22.9-8.7-34.8-12.8c-5.6,0.3-11.1,2-16.1,4.9c-2.5,6.1-4.5,12.4-6.2,18.8c-3.1,11.5-5.4,23.3-8.6,34.8
				c-1.3,4.7-2.8,9.4-4.5,13.9c-2-1-4.3-3.3-6.9-2l-11.3,7.4l-12.3,8c-4.9,3.6-10.5-0.3-14.8-2.6c0-0.1,0-0.1,0-0.2
				c0.8-8.3,1.8-16.4,2.7-24.5c1-8.3,2.1-16.5,3.1-24.7c0-0.2,0.1-0.5,0.1-0.7c-3.3-5.9-11.1-0.7-16.4-2.6
				c-9.8,3.6-28.2-6.6-29.8,9.5c-0.1,0.9-0.2,1.8-0.4,2.7c-1,5.8-3.4,10.8-5.8,15.8c-1.9,3.8-3.9,7.6-5.3,11.6
				c-4.6,8-6.4,17.3-11,24.9c-1.6,2.6-3.5,5.1-6.1,7.2c-4.3,2.6-9.8,1-14.1,0.7l-0.7-2c0.1-0.7,0.2-1.3,0.3-1.9
				c2.4-14.3,7-27.2,11-40.5c0.7-2.4,1.5-4.9,2.1-7.4c0-0.9,0.2-1.9,0.4-2.8c1.4-5,5.1-10.7-0.1-14.9c-11.8-1.3-24.9,1.3-37.4,1.6
				c-2.3-0.7-4.9-0.3-7.2,1c-1.8,7.2-3.6,14.5-5.4,21.8c-0.1,0.2-0.1,0.4-0.1,0.6c-3.9,16.2-7.7,32.5-11.6,48.7
				c0,0.4-0.1,0.7-0.1,1.1c-0.7,5.1-1.5,11.5,3.4,14c1.1,0.9,2.2,1.8,3.3,2.7c9,8.1,14.1,17.8,25.3,22.2c7.8-0.2,15.6-0.6,23.4-1.4
				c5.6-0.5,11.1-1.3,16.6-2.2c0.4-0.4,0.8-0.8,1.2-1.2c5.4-5.5,10.8-11.6,16.6-17.4c2.6-2.6,5.3-5.2,8.1-7.7l2.6-1
				c1.4,2.8,2.4,5.8,3.6,8.6c1.3,3.1,2.8,6.2,5.2,8.7c1.6,0.6,3.4,0.8,5.2,0.7c4.4-0.1,9.2-1.4,13.9-1.4c9.5-1.3,20-1.3,29.8-3.6
				c0.6-1.3,1.1-2.5,1.8-3.7c0.1-0.2,0.2-0.5,0.4-0.8c5.2-10.7,11.8-20.7,19.5-29.9c6.9,6.6,12.8,14.4,19,21.6l2.7,1.1l0.6,0.2
				c5.3,0.4,9.5-1.1,13.5-2.9c5.9-2.7,11.3-6.3,18.9-5.9c-0.1,0.8-0.3,1.6-0.4,2.4c-0.8,4.5-1.6,9-2.7,13.5c-1.1,5-2.4,9.9-3.8,14.6
				c-2.2,7.2-3,15.1-5,22.2c-0.7,2.3-1.5,4.5-2.5,6.6c-2.2-1.6-4.2-3.3-6.1-5c-3.6-3.2-7-6.5-11.6-9.1c-17,3.3-33.4,9.2-50.5,13.4
				c-1.6,1.3-3.9,3.3-3,5.9c0.6,0.6,1.3,1.2,1.9,1.9c6,5.7,12.8,10.8,19.8,15.9c4.4,3.2,8.9,6.4,13.4,9.8c5.9,3.8,10.9,8.7,16.5,13
				c4,3,8.3,5.7,13.4,7.4c11.8-1.3,21.6-9.2,31.8-13.8c2.4-1.7,5.9-2.4,8.7-3.9C567.5,1025.6,569.1,1023.9,569.4,1020.8
				L569.4,1020.8z M730.7,817.6h0.3c-0.2-0.7-0.2-1.6,0-2.7c0.3-2.1,1.2-4.8,1.6-6.8c12.1,1,24.3,0.3,36.4,1.6
				c-0.3,1.7-1,3.4-1.5,5.1c-0.5,2-0.9,4.1-0.2,6.3c5.2,5.3,13.4,0.3,19.7-0.7l2,2c2.1,5.2,4.2,10.4,6.3,15.7
				c3.1,7.8,6.2,15.8,9.5,23.6c2.6,3,6.9,3.9,10.8,2.6L834,861c3.6-5.6,4.6-12.8,6.2-19.3c1-4.3,2.1-8.6,3.3-12.8
				c1.3-4.8,2.8-9.5,4.5-14.2c1.5-4,3.2-7.9,5.3-11.7c4.9-4.6,11.2-5.2,16.1-9.2c8.5-4.9,17.7-8.9,27.5-11.5c5.2-1,8.2,4.6,13.1,2.6
				c4.3-3,4.3-9.8,7.2-14.1c0.5-1.5,1-3.1,1.6-4.6c2.1-6.1,4.5-12.1,7-18.1c5-11.8,10.7-23.3,16.8-34.6c4.2-7.8,8.5-15.5,13-23
				l2,0.3l17.2,16.5l6.4,6.1c0.7,3-2,5.2-3,7.5c-4.2,9-9,18-13.7,27.2c-1.7,3.4-3.4,6.8-5,10.3c-3.6,7.7-6.8,15.5-9.2,23.6
				c-3.8,8.9-6.3,18.3-8.2,27.9c-0.3,1.6-0.6,3.2-0.9,4.8c-1.3,7-2.4,14.1-3.7,21.1c-2.3,3.9,0.3,7.9-1,12.5
				c0.3,3.3-0.1,7.3,0.2,10.8c0.3,3.9,1.6,7.3,5.7,8.5c10.7-4,19.8-9.7,29.3-15.2c4.5-2.6,9-5.1,14-7.4c1.3,1.3,3.8,2,5.5,3.7
				c0.4,0.5,0.8,0.9,1.1,1.6l0.7,1.6c-16.7,11.8-34.3,20.4-51.7,29.3c-4.9,2.5-9.7,5-14.5,7.7c-2.6-0.3-3.3-3.6-3.6-5.9
				c-0.2-0.6-0.4-1.2-0.6-1.8c-2.1-6.1-3.8-12.2-5.3-18.3c-0.7-2.8-1.3-5.6-1.9-8.4c-1-1.6-2.3-3-4.3-3.3c-5.6,0.7-8.2,7.2-12.8,9.8
				c-2.8,2.4-5.6,4.8-8.5,7.1c-5.6,4.5-11.4,8.8-17.3,13.1c-4.9,3.5-9.8,7-14.8,10.7c-3,0.3-7.9,2.3-9.8-0.7l-0.4-10l-0.2-4.9
				l-0.1-2.8c-1.3-3-4.9-4.3-7.9-3c-4.4,3.3-8.6,6.5-12.8,9.7c-0.4,0.3-0.8,0.6-1.2,0.9c-7.1,5.6-14,11.2-21.4,17.2
				c-6.2,2.6-13.1,3-19.7,1c-0.7-3.5-1.4-7.1-2-10.6c-0.5-2.5-0.9-5-1.4-7.6c-2.3-12.4-4.7-24.8-8-36.9c-0.3-0.5-0.7-1.1-1-1.7
				c-1.6-2.8-3.3-5.8-6.6-7.2c-4.8,1.4-6.1,5.5-7.2,9.8c-0.7,2.8-1.4,5.6-3,7.9c-3.4,9.4-7.2,18.8-11.4,28c-1.9,4.3-3.9,8.5-6,12.6
				c-3.2,0.6-5,3.1-7.3,4.9c-1.2,1-2.6,1.8-4.5,2c0-0.4-0.1-0.8-0.1-1.1c-0.6-6,0.5-12.2,1-18.4c0-0.6,0.1-1.2,0.1-1.8
				c-1.6-8.2,2-17,1-24.9c0-1.2,0.1-2.3,0.2-3.5C728.6,839.8,731,829.5,730.7,817.6L730.7,817.6z M664.5,816.9
				c1.2-0.7,2.4-1.4,3.5-2.1c0.3-0.2,0.6-0.3,0.9-0.5c5.7-3.2,11.5-5.7,18.5-4.6l0.3,1l1,4.1v0.1l2,40.7l-1,2.9v0.1
				c-11.5,7.2-22.5,14.6-33.2,22.8c-1.5,1.1-3,2.3-4.5,3.4c-1.6,2-2.3,4.6-1,6.9c7.9,5.2,14.4,12.5,23.6,16.1
				c6.2-1,7.9-7.2,12.5-10.8c4.3-3.3,6.6-8.5,11.5-11.8c3,2,5.9,4.6,7.9,7.5c-2.2,5.5-7.5,8.5-11.1,12.9c-0.2,0.3-0.5,0.6-0.7,0.9
				c-4.3,3.3-6.6,9.2-12.5,10.2c-15.4,1.6-28.2,3.9-43.9,3.3c-1.2-0.9-2.4-1.8-3.5-2.7c-10.7-8.7-17.7-19.3-25.7-29.1l0.7-3.6
				c0.8-1,1.5-2.1,2.3-3.1c2.2-3,4.4-6.1,6.7-9.2C632.5,852.9,646.7,832.8,664.5,816.9L664.5,816.9z M482.9,908.7
				c-7.2,9.5-13.4,21.3-22.6,30.2c-11.5,4.6-23.3,2-35.4,3.3c-4.3-7.2-5.9-14.4-11.1-21c-1.6-1-3.9-1-5.6,0
				c-8.4,7.8-15,18.9-23.5,26.7c-1.5,1.4-3.1,2.7-4.7,3.8c-12.5,3-25.2,4.9-38,5.9c-3.6-3.7-7.1-6.7-10.5-9.7
				c-4.4-3.9-8.6-7.7-12.1-12.9c0.3-1.9,0.6-3.7,0.9-5.6c2.8-16.5,7.5-31.9,11.2-48c0.2-0.8,0.4-1.6,0.5-2.4
				c0.9-4.2,1.8-8.5,2.5-12.9c9.5,0,18-1.6,27.9-0.3c-0.3,2.5-0.7,5.1-1.3,7.6c-0.6,2.6-1.3,5.3-2.1,7.9c-2.2,7.7-4.9,15.5-6.5,23.1
				c-0.6,5.9-4.9,13.3-4.9,19.7c0,3.6,1.4,6.8,5.5,9.2c9.8,3,24.3,7.2,32.1-3c2.5-4.8,4.8-9.8,6.9-14.8c4.7-11.2,8.6-22.8,13.2-34.2
				c2.4-6.1,5-12.1,8-18c0.3-0.5,0.5-1,0.8-1.5c4.6-3.3,9.8,0,15.4-1.6c0.1,0,0.1,0,0.2,0c2.9,0.6,6.4-0.7,9.3,1
				c-1.2,6.8-2.3,13.5-3.5,20.2c-1.4,8.4-2.8,16.8-4.1,25.4c0,0.4,0.1,0.8,0.2,1.2c1.5,7.8,10.9,6.5,16.2,10.2
				c14.1,4.3,21.6-11.8,33.8-15.4c1.3,0.3,2,2,3,3L482.9,908.7L482.9,908.7z M501.8,1014.3c-7.9-6.1-16.1-11.8-23.5-19l0,0
				c10.2-3.3,20-6.6,30.8-9.2c2.4,0,4.2,0.9,5.8,2.2c3,2.4,5.1,6.1,8.3,7.6c4.9,2.3,5.9,6.9,11.5,6.9l3.3-3.9
				c1.2-5.3,2.6-10.5,4-15.8c3.1-11.6,6.3-23.1,8.1-35c0-0.1,0-0.2,0-0.2c1-5.2,2.7-10.2,4.2-15.2c1.6-5.3,2.8-10.7,2.7-16.3
				c-1-2.3-3.9-3.3-6.2-2.3c-12.5,3.6-23.6,9.2-35.7,13.1c-7.5-6.6-14.1-14.1-19.7-22.3c0.4-3.1,0.9-6.2,1.5-9.3
				c0.9-4.8,1.8-9.5,2.9-14.1c2.9-12.2,6.4-24.2,9.5-36.4c0.5-2,1-4,1.5-6.1c1-4.3,4.3-7.2,8.5-7.9c8.2,1,15.4,5.2,23.3,7.2
				c0.2,0.1,0.3,0.2,0.5,0.2c7.4,3.7,15.4,4.8,23.4,8.3c7.6-0.3,6.6-8.8,8.6-14.4c0.2-0.7,0.5-1.4,0.9-2c0.9,0.4,1.8,0.9,2.7,1.3
				c7.3,3.4,14.8,6.6,21.2,11.8c-2.2,11.2-5,22.3-7.6,33.7c-0.3,1.4-0.6,2.8-1,4.2c-0.9,3.8-1.8,7.7-2.6,11.6
				c-2.8,11.4-5.6,23-8.4,34.6c-1.6,6.7-3.2,13.5-4.8,20.2c-2.4,10.1-4.8,20.2-7.2,30.2c-1.4,5.8-2.8,11.5-4.2,17.2
				c-3.6,5.1-2.6,13.5-5.2,19.1c-1.2,2.6-3.2,4.7-6.9,5.5c-9.5,3.3-18.4,8.2-28.2,10.8c-5.2-1.3-8.5-7.2-13.4-9.5
				C507.6,1018.8,504.7,1016.5,501.8,1014.3L501.8,1014.3z"/>
			<path d="M153.7,865c0.2,2.8,0.9,5.5,3.7,6.3c16.1-0.7,31.8-4.6,46.9-5.2c14.8-3,30.8-3.9,46.2-5.9c2.6-0.3,6.2-1.6,8.9,0
				c-0.7,6.2-1.6,12.5-3.3,18.4c-0.4,0.9-0.7,1.8-0.9,2.8c-1,4-0.7,8.4-1.4,12.6c-0.2,1.3-0.5,2.7-1,3.9
				c-1.6,10.8-6.2,20.3-7.5,31.1c-1.1,5.2-2.3,10.3-3.6,15.4c-0.3,1.1-0.6,2.3-0.8,3.4c-4.1,16-8.7,31.8-13.4,47.4
				c-1.5,5-3,10.1-4.5,15.1c-0.2,1.6-0.7,2.9-1.4,4c-2.4,3.5-7.3,4.5-11.1,6.5c-4.6,1-10.2,4.6-15.1,1c-1.1-2.4-2-4.9-2.9-7.5
				c-1-3-1.8-6.1-2.3-9.2c-0.2-0.8-0.3-1.7-0.4-2.6c-0.3-4,0.7-8.5-2.5-11.5c-17.4-5.2-35.4-5.9-53.4-9.5l-3,1.3
				c-2.3,5.9,0.3,11.5,1,17.7c0.7,4.4,1.2,8.6,1.6,12.8c0,0.3,0.1,0.7,0.1,1c1.2,11.1,2.1,21.8,5.8,32.7c4.2,3.6,8.4,7.3,12.7,10.8
				c9.2,7.7,18.6,14.7,29.6,19.7c17.7,1.3,36.4,3.3,55.1,3.3c12.5-6.2,22.6-15.1,34.1-23.9c2.1-7.7,4.1-15.3,6.2-23
				c1.7-6.5,3.5-13,5.2-19.6c2.7-10.3,5.4-20.7,8.1-31.1c3-11.8,6-23.6,9-35.4c1.3-5.1,2.5-10.1,3.8-15.2c1.5-6,3-12,4.5-18
				l8.2-32.5l0.2-0.7l12.5-49.8l4.2-16.7l8.5-33.9l1.2-4.7l-158,31.1l-27.9,6.2c-0.1,0.4-0.1,0.8-0.1,1.2c-0.1,0.5-0.1,1-0.2,1.5
				c-1.5,14.5-0.8,28.7-2.7,43.5C153.7,861.2,153.5,863.1,153.7,865L153.7,865z M322.8,814.8c-1.7,6.3-3.4,12.5-5.1,18.7
				c-1.9,6.8-3.7,13.6-5.3,20.4c-2.1,9.3-5,18.4-7.5,27.4c-0.3,1-0.6,2-0.8,3c-1.5,5.5-2.9,11-3.8,16.5c-3.7,11-6.1,22.6-9,34
				c-1,3.9-2,7.7-3.2,11.5c-0.1,0.5-0.2,1-0.4,1.4c-2.8,11.3-5.1,22.3-8.8,33.3l-1.2,4.5l-7.6,28.7l-5.8,22l-1.1,4.2
				c-4.6,10.5-16.7,14.8-23.9,23c-7.2,3.6-18,1.6-25.9,1.6c-12.5-0.7-24.6-2.6-36.4-6.2c-2.3-1.3-4.7-2.8-7.1-4.4
				c-6.6-4.5-13.3-9.8-19.8-13.9c-5.3-7.6-6.5-16.7-7.1-26.2c-0.1-0.9-0.1-1.9-0.2-2.8c-0.2-3.5-0.5-7.1-0.9-10.7
				c0.7-3.3-0.7-6.6,0-9.5c10.2-1,18.7,2.6,28.9,2.6l10.2,2.6c0.5,2.4,0.8,4.9,1.2,7.4c0.5,3.5,0.9,7,1.6,10.4
				c1.1,5.5,2.8,10.7,6.3,15c11.5,8.5,25.9-1.3,36.1-5.9c2.1-2.9,3.9-6,5.4-9.1c3.2-6.7,5.3-13.9,7.2-21.2
				c1.4-5.4,2.8-10.8,4.4-16.2c3.4-9.2,5.5-19.1,7.4-29.1c0.3-1.8,0.7-3.6,1-5.3c1.7-9.5,3.4-19.1,5.7-28.2
				c1.4-7.3,2.9-14.6,4.6-21.9c0.9-3.7,1.7-7.4,2.7-11c1.2-4.7,2.5-9.4,3.9-13.9c0-8.2,4.9-13.8,2.9-22.3l-2.3-2
				c-3.8,0.7-7.6,1.3-11.4,1.9c-27.8,4.4-55.7,7.3-83.1,12.5l-11.5,1c-0.3-13.1,0.3-27.2,1-40.3c4-1.4,8-2.5,12.1-3.4
				c2.6-0.5,5.2-1,7.9-1.2c29.2-6.2,59-9.8,87.9-17.4c19-3.3,38.7-6.9,57.4-10.2C327.6,795.8,325.3,805.3,322.8,814.8L322.8,814.8z"
				/>
			<path d="M564.5,881.3c1-3.9,2.9-7.8,1.6-11.6c-8.2-7.2-17-13.1-27.9-14.4c-10.3,5-15.9,16-20.9,26.1c-0.2,0.5-0.5,1-0.7,1.5
				c-0.9,2.7-2,6.2-1.2,9.1c0.3,1.3,1,2.5,2.2,3.4c9.5,1,18.4,3,27.9,4.3c4.6-1,7.2,4.3,12.1,1.6c4.6-5,4.3-12.5,6.5-18.6
				c0.1-0.4,0.3-0.7,0.4-1.1C564.5,881.5,564.5,881.4,564.5,881.3L564.5,881.3z M553.7,892c-7.6-0.8-15.5-2.3-23.2-3
				c-1.6-0.1-3.1-0.2-4.7-0.3c1.6-2.8,3.9-5.2,6.3-7.4c3.9-3.4,8.4-6.3,12.4-9.3c5.2,1.3,12,3.2,12.8,9.3c0,0.1,0,0.1,0,0.2
				c-0.3,0.8-0.5,1.6-0.6,2.5C556.1,887.1,556,890.5,553.7,892L553.7,892z"/>
			<path d="M897.9,804.8c-2.6-2.6-6.6-3.9-10.2-3.3c-2.3,0.3-4.6,2-5.9,3.9l-5.5,9.4l-5.1,8.8l-9.4,16.2c-0.7,2-0.7,3.9,0.7,5.6
				c10.2,0,18-5.9,27.5-7.2c3-1,4.9-3.9,5.2-7.2c-0.5-4.3,0.5-8.3,1.4-12.2c0.3-1.3,0.6-2.6,0.9-4
				C898.3,811.5,898.7,808.2,897.9,804.8L897.9,804.8z M887.1,828.7c-3.6,2-7.5,3-11.5,3.6c0.8-2.1,4.9-7,8.3-11.1
				c1.9-2.3,3.6-4.2,4.4-5.3c0.3,1.2,0.3,2.8,0,4.4C888,823.4,887.1,826.8,887.1,828.7L887.1,828.7z"/>
			<path d="M673,834c-1-2.6-1.3-5.9-4.3-6.2c-9.8,5.6-15.4,16.4-23.6,25.2c-3,5.6-12.1,8.5-9.5,15.7c0,0,0,0.1,0.1,0.1
				c1,1.6,2.3,3.5,4.5,3.2c4.9-1.9,9.7-4.4,14.5-6.8c4.1-2,8.3-4,12.7-5.3C677.6,855,671,843.5,673,834L673,834z M653,857.3
				c1.6-1.6,4.6-14.1,14.8-12.8C670,850,656.9,857.3,653,857.3z"/>
		</g>
	</g>
</g>
</svg>
